<?xml version="1.0" encoding="UTF-8"?>
<svg version="1.1" xmlns="http://www.w3.org/2000/svg" width="2400" height="2132">
<path d="M0 0 C17.01395984 5.95488594 29.40797165 25.36422103 39.50390625 39.234375 C44.16705789 45.62532824 49.05120028 51.82920177 54 58 C54.75667969 58.95132813 55.51335938 59.90265625 56.29296875 60.8828125 C61.08224754 66.83338543 66.11407426 72.49935796 71.3125 78.08984375 C73.75300781 80.7325448 76.12931711 83.41988149 78.5 86.125 C107.30258028 118.09382138 147.27273522 137.0024343 190 140 C192.65860616 140.10702688 195.31609335 140.17623658 197.97607422 140.23925781 C228.54539062 141.04640399 254.85773713 149.79828515 282.16015625 162.89453125 C309.36270015 175.93186222 334.62849676 184.13545657 364.625 188.0625 C365.62630951 188.19384338 366.62761902 188.32518677 367.65927124 188.46051025 C449.32839135 199.09784222 535.57250614 192.52145493 618.75390625 166.2265625 C641.92070983 158.7094314 664.84265569 154.12485754 689 151 C689.74832092 150.90180969 690.49664185 150.80361938 691.26763916 150.70245361 C773.8629272 139.97570176 852.57191934 156.68354888 922 203 C922.7640918 203.50885742 923.52818359 204.01771484 924.31542969 204.54199219 C927.43983387 206.62363777 930.56348608 208.70635779 933.68261719 210.79589844 C937.67061846 213.46445596 941.67978155 216.08260548 945.75 218.625 C960.92193484 228.21458935 975.22268922 239.23418664 988.31640625 251.5 C990.60958458 253.63629423 992.93663261 255.70702766 995.3125 257.75 C1001.83878554 263.44371414 1007.39207646 269.57090826 1012.8203125 276.32421875 C1014.61768212 278.53066711 1016.45997955 280.64714262 1018.375 282.75 C1063.42059315 334.00877841 1084.51024183 405.53661035 1080.69140625 472.98828125 C1076.33394034 539.13024592 1049.94871443 601.27205556 1005 650 C1003.47803033 651.70732104 1001.9572019 653.41566009 1000.4375 655.125 C998.95987208 656.75139933 997.4808082 658.37649574 996 660 C995.43539063 660.64324219 994.87078125 661.28648437 994.2890625 661.94921875 C934.87558824 726.06737989 826.72390378 748.47496709 729 757 C727.7305957 757.08540039 726.46119141 757.17080078 725.15332031 757.25878906 C715.25984631 757.87708733 705.38035823 758.10643761 695.46875 758.2109375 C694.17605194 758.22528336 692.88335388 758.23962921 691.55148315 758.25440979 C686.1849123 758.31170861 680.81843818 758.36784608 675.45166016 758.40136719 C640.99453546 758.62837462 610.20380699 762.87324239 584.125 787.5 C571.23085327 801.12821944 564.37135191 818.07455651 564.7265625 836.73046875 C565.32810923 849.96151882 571.03243088 862.64017381 580.625 871.75 C588.79414938 878.61809037 598.96191372 886.51339936 610 886 C609.60539054 881.65929591 607.90693582 879.22799512 605.25390625 875.94140625 C600.81288013 869.065425 601.22606085 860.85344569 602 853 C604.10217578 845.60816329 608.64917326 840.2338845 615 836 C622.29538102 832.23177711 632.71314781 832.84216715 640.5 834.9453125 C643.44788419 836.14101042 646.20515663 837.4840092 649 839 C649.74765625 839.33773437 650.4953125 839.67546875 651.265625 840.0234375 C658.69113694 843.79287677 662.20393981 851.47991518 665.171875 858.94921875 C666.99972722 865.68295737 667.38425346 873.9748776 664.4375 880.4375 C663.30078125 882.2734375 663.30078125 882.2734375 662 884 C661.56042969 884.59039063 661.12085938 885.18078125 660.66796875 885.7890625 C651.29895325 896.55750057 635.57740038 900.40265878 622 902 C607.64505418 902.78412548 591.80113906 903.53392516 580 894 C579.28263672 893.24783203 579.28263672 893.24783203 578.55078125 892.48046875 C576.76647266 890.7770608 575.02405467 889.89674892 572.8125 888.8125 C557.87860908 880.62060838 550.91890109 864.53064229 546 849 C545.65839844 847.96230469 545.31679687 846.92460938 544.96484375 845.85546875 C540.31333918 828.65571928 541.01451072 807.75543215 547 791 C547.5259375 789.43185547 547.5259375 789.43185547 548.0625 787.83203125 C555.63091088 767.51820621 571.58945718 753.45666399 590.625 744.0625 C596.23334863 741.63862354 601.95987365 740.70626259 608 740 C607.18239741 738.92534811 606.34463044 737.8660417 605.5 736.8125 C604.80390625 735.92498047 604.80390625 735.92498047 604.09375 735.01953125 C602.14626096 733.14107634 600.5095388 732.10423454 598.1796875 730.78515625 C593.41611978 727.89799618 590.714472 724.18366605 587.625 719.625 C587.06973633 718.82916504 586.51447266 718.03333008 585.94238281 717.21337891 C584.27939141 714.81918709 582.63864114 712.41089759 581 710 C580.08659947 708.68183272 579.17258363 707.36409149 578.2578125 706.046875 C558.35090243 677.09622402 539.62041773 640.09906941 541 604 C541.7421875 601.15234375 541.7421875 601.15234375 543 599 C544.86450195 598.23706055 544.86450195 598.23706055 547 598 C552.01162665 601.00583309 555.65156402 604.47020013 559.1875 609.125 C559.64745361 609.71829102 560.10740723 610.31158203 560.58129883 610.92285156 C565.01909711 616.77814494 568.85966609 622.98837144 572.72265625 629.23071289 C576.42739665 635.18864641 580.36491887 640.72036771 585 646 C585.68191406 646.79019531 586.36382813 647.58039062 587.06640625 648.39453125 C589.33547302 650.97209368 591.65332835 653.49290406 594 656 C595.32451172 657.423125 595.32451172 657.423125 596.67578125 658.875 C627.99455182 691.7680658 676.58246396 711.94859156 721.76123047 713.2893219 C725.79950998 713.36922439 729.83602477 713.38518589 733.875 713.375 C734.72861115 713.37412384 735.58222229 713.37324768 736.46170044 713.37234497 C791.36554826 713.18728949 840.84518004 690.56742911 879.40356445 651.96948242 C886.31894793 644.84678935 892.22648062 637.05797742 898 629 C898.43086914 628.41379883 898.86173828 627.82759766 899.30566406 627.22363281 C938.69166223 573.43040491 956.57139423 490.68012511 947.22650146 424.5695343 C945.91507714 416.2867787 944.0200726 408.13515931 942 400 C941.72736328 398.86675293 941.45472656 397.73350586 941.17382812 396.56591797 C931.91635141 358.47595234 917.20328302 319.89681492 894 288 C893.53770996 287.35272949 893.07541992 286.70545898 892.59912109 286.03857422 C886.46587483 277.47250774 879.9752745 269.48018431 872.69140625 261.8671875 C870.8308952 259.88516267 869.08682029 257.92863485 867.37109375 255.83203125 C864.23908793 252.09116762 860.71331138 249.14482397 857 246 C855.62714844 244.77796875 855.62714844 244.77796875 854.2265625 243.53125 C823.05573462 215.99617942 784.00674319 200.13607412 743 195 C742.01 194.86851562 741.02 194.73703125 740 194.6015625 C687.49455681 188.95417472 625.22007267 202.90440386 579 228 C578.32743164 228.35707031 577.65486328 228.71414062 576.96191406 229.08203125 C563.60195132 236.18559058 552.02127031 244.56515096 541 255 C540.10410156 255.83144531 539.20820312 256.66289062 538.28515625 257.51953125 C514.37825064 280.4205362 500.23374669 314.25304681 498.90838027 347.28331113 C498.87234158 349.70713255 498.86661058 352.12905084 498.87301636 354.5531311 C498.87145495 355.47682371 498.86989354 356.40051632 498.86828482 357.35219961 C498.86430481 360.44135917 498.86745189 363.53046901 498.87060547 366.61962891 C498.86926833 368.86112146 498.86750886 371.10261379 498.86536407 373.34410572 C498.8608276 379.50201657 498.86268827 385.65991106 498.86577559 391.81782222 C498.86792888 397.77898893 498.86568284 403.74015376 498.86379392 409.70132022 C498.85974325 423.43391233 498.86334284 437.16649649 498.86943495 450.89908737 C498.87380781 460.83359208 498.87632962 470.76809536 498.87742338 480.70260096 C498.88635959 559.50661396 499.02104043 638.30965915 499.58008461 787.51041131 C499.64718249 804.51214411 499.71316355 821.51388092 499.77734375 838.515625 C499.78005922 839.23352952 499.78277469 839.95143404 499.78557244 840.69109324 C500.0157596 901.60658901 500.08705847 962.52153509 500.0625 1023.4375 C500.06207577 1024.51576789 500.06165154 1025.59403579 500.06121445 1026.70497847 C500.05072143 1052.80332893 500.03161111 1078.90166641 500 1105 C502.22804358 1103.4123747 504.45558997 1101.82405956 506.68286133 1100.23535156 C507.3080793 1099.78995026 507.93329727 1099.34454895 508.57746124 1098.88565063 C513.67267511 1095.24997989 518.69619716 1091.52707396 523.6875 1087.75 C530.2877963 1082.77843857 536.90662086 1077.83442879 543.5625 1072.9375 C544.34343018 1072.36273926 545.12436035 1071.78797852 545.92895508 1071.19580078 C549.84164925 1068.31795219 553.75765875 1065.44467114 557.67578125 1062.57421875 C566.11879809 1056.38074062 574.49873554 1050.11619438 582.8125 1043.75 C589.03467144 1038.98591268 595.28910816 1034.29956612 601.69580078 1029.78710938 C606.76506227 1026.20323184 611.72798119 1022.48382538 616.6875 1018.75 C623.28904287 1013.78007424 629.90660094 1008.83444345 636.5625 1003.9375 C637.34343018 1003.36273926 638.12436035 1002.78797852 638.92895508 1002.19580078 C642.84164925 999.31795219 646.75765875 996.44467114 650.67578125 993.57421875 C659.11879752 987.38074104 667.49875839 981.11622392 675.8125 974.75 C682.1273009 969.91466674 688.47736771 965.15969728 694.97705078 960.57617188 C699.27136774 957.54190958 703.48850778 954.41468163 707.6875 951.25 C713.53781083 946.84092577 719.41226783 942.46707863 725.3125 938.125 C726.10889893 937.5386377 726.90529785 936.95227539 727.72583008 936.34814453 C731.71123766 933.41532724 735.69973076 930.48677994 739.69140625 927.5625 C748.12936718 921.37313592 756.5039058 915.1122353 764.8125 908.75 C771.03467144 903.98591268 777.28910816 899.29956612 783.69580078 894.78710938 C788.76506227 891.20323184 793.72798119 887.48382538 798.6875 883.75 C805.28904287 878.78007424 811.90660094 873.83444345 818.5625 868.9375 C819.34343018 868.36273926 820.12436035 867.78797852 820.92895508 867.19580078 C824.84164925 864.31795219 828.75765875 861.44467114 832.67578125 858.57421875 C841.11879809 852.38074062 849.49873554 846.11619438 857.8125 839.75 C864.03467144 834.98591268 870.28910816 830.29956612 876.69580078 825.78710938 C881.76506227 822.20323184 886.72798119 818.48382538 891.6875 814.75 C898.28904287 809.78007424 904.90660094 804.83444345 911.5625 799.9375 C912.34343018 799.36273926 913.12436035 798.78797852 913.92895508 798.19580078 C917.84164925 795.31795219 921.75765875 792.44467114 925.67578125 789.57421875 C934.11879809 783.38074062 942.49873554 777.11619438 950.8125 770.75 C957.03467144 765.98591268 963.28910816 761.29956612 969.69580078 756.78710938 C974.76506227 753.20323184 979.72798119 749.48382538 984.6875 745.75 C991.28904344 740.78007382 997.90663125 735.83448537 1004.5625 730.9375 C1005.3354541 730.36854004 1006.1084082 729.79958008 1006.90478516 729.21337891 C1010.95378091 726.2350108 1015.0069105 723.26235071 1019.0625 720.29296875 C1042.47505061 703.1328396 1065.59117742 684.33088105 1082.77441406 660.67431641 C1084.04979995 658.93196652 1085.360719 657.22126478 1086.6796875 655.51171875 C1120.94847076 610.65795963 1133.79159399 559.32052306 1137 504 C1158.03444273 514.88174637 1170.07724107 537.04066647 1177.2109375 558.671875 C1181.20259839 572.41759447 1182.6591493 586.78925838 1184 601 C1184.41338623 600.45351807 1184.82677246 599.90703613 1185.25268555 599.34399414 C1199.82117002 580.18618764 1216.18381275 562.78776137 1236 549 C1236.61738037 548.56236328 1237.23476074 548.12472656 1237.87084961 547.67382812 C1243.39935161 543.9640893 1249.25141702 541.90349108 1255.5625 539.875 C1256.6237207 539.52953125 1257.68494141 539.1840625 1258.77832031 538.828125 C1286.48714733 529.99367087 1286.48714733 529.99367087 1299.5 534.1875 C1303.25257932 536.1308 1304.70524799 537.506055 1307 541 C1309.93226251 556.06576254 1300.46805033 569.95639509 1292.75 582.125 C1289.47349769 587.50292395 1288 592.71090062 1288 599 C1299.63963841 600.68962493 1308.92489498 594.43761094 1317.87231445 587.77416992 C1319.90061431 586.2305059 1321.91831383 584.67389583 1323.93359375 583.11328125 C1330.41116614 578.10654446 1337.19717505 573.54952331 1344 569 C1344.64984863 568.56365234 1345.29969727 568.12730469 1345.96923828 567.67773438 C1384.39574057 541.99029784 1429.18872474 516.5318217 1476.75317383 516.68432617 C1478.80018759 516.68748102 1480.84574197 516.66394146 1482.89257812 516.63867188 C1492.31201428 516.59591975 1500.84800091 517.82260027 1510 520 C1510 520.99 1510 521.98 1510 523 C1507.72297827 524.71324744 1505.48512382 526.20285102 1503.0625 527.6875 C1501.4907709 528.67690145 1499.91916366 529.66649648 1498.34765625 530.65625 C1497.4880127 531.1925 1496.62836914 531.72875 1495.74267578 532.28125 C1490.80302436 535.37677662 1485.90582499 538.53875701 1481 541.6875 C1474.45924462 545.87400385 1467.91491036 550.05487138 1461.3671875 554.23046875 C1447.63044675 562.98926487 1447.63044675 562.98926487 1434.03540039 571.96508789 C1428.42126839 575.73469483 1422.76488695 579.43851772 1417.10546875 583.13970947 C1411.06765335 587.08907708 1405.03379939 591.04450069 1399 595 C1398.13961121 595.56400513 1397.27922241 596.12801025 1396.39276123 596.70910645 C1390.64315621 600.47893264 1384.89622095 604.2527917 1379.15170288 608.03036499 C1377.24599185 609.28288752 1375.33961972 610.53440488 1373.43252563 611.78482056 C1363.51458748 618.28867206 1353.67234091 624.86387481 1344.01248169 631.74621582 C1337.75513298 636.19888143 1331.38987816 640.47458329 1324.98339844 644.70889282 C1321.73761702 646.8547138 1318.49783107 649.00955382 1315.2578125 651.1640625 C1314.62401672 651.58534927 1313.99022095 652.00663605 1313.33721924 652.44068909 C1305.94894681 657.3566258 1298.63209897 662.37472292 1291.32226562 667.40625 C1287.89814545 669.75619286 1284.46235353 672.08888117 1281.02783203 674.42358398 C1271.37380402 680.98828909 1261.76762799 687.61834652 1252.19116211 694.2956543 C1246.7453657 698.09250578 1241.28925797 701.87296305 1235.8125 705.625 C1229.15132018 710.19137247 1222.53197505 714.81596746 1215.91992188 719.453125 C1209.39586152 724.02740914 1202.85646195 728.57924395 1196.3125 733.125 C1187.5235682 739.23298305 1178.76306455 745.37928698 1170.02832031 751.56445312 C1167.23348426 753.54250271 1164.43601939 755.51681721 1161.63842773 757.4909668 C1160.21590239 758.49480618 1158.79353836 759.49887422 1157.37133789 760.50317383 C1153.84475375 762.99345674 1150.31659802 765.48145333 1146.78515625 767.96484375 C1138.72614162 773.63600219 1130.71054836 779.36223312 1122.73071289 785.14428711 C1117.67940041 788.79987806 1112.60053933 792.41347066 1107.5 796 C1100.80217362 800.71037086 1094.15192553 805.48316721 1087.51953125 810.28515625 C1083.0243118 813.53950783 1078.51977584 816.77984861 1074 820 C1066.41325803 825.40777063 1058.86409663 830.86727269 1051.31445312 836.32666016 C1047.54406981 839.05263139 1043.77196306 841.77621534 1040 844.5 C1038.49999141 845.58332144 1036.99999142 846.66665479 1035.5 847.75 C1026.5 854.25 1026.5 854.25 1024.25024414 855.87475586 C1022.7493445 856.95878416 1021.24853078 858.04293142 1019.74780273 859.12719727 C1016.01226033 861.82587655 1012.27527746 864.52251312 1008.53515625 867.21484375 C1000.01996829 873.34816095 991.54549816 879.53260679 983.10571289 885.76928711 C977.76164238 889.71407149 972.39090687 893.61951467 967 897.5 C958.41628409 903.68083863 949.89798492 909.94785859 941.39111328 916.23388672 C937.43008838 919.15956103 933.46484283 922.07950306 929.5 925 C927.91664621 926.1666389 926.33331288 927.33330558 924.75 928.5 C915.25 935.5 915.25 935.5 912.87524414 937.24975586 C911.29101519 938.41712531 909.70686812 939.58460588 908.12280273 940.75219727 C904.1788343 943.65902557 900.23348838 946.5639448 896.28515625 949.46484375 C887.31653669 956.05767005 878.38618238 962.69809762 869.48950195 969.38769531 C862.97713286 974.27974687 856.42672416 979.11818879 849.86328125 983.94140625 C844.88805486 987.60039138 839.93480064 991.28670301 835 995 C829.25237684 999.32349706 823.47937653 1003.61096226 817.6875 1007.875 C816.49229736 1008.75502686 816.49229736 1008.75502686 815.27294922 1009.65283203 C811.28789972 1012.58525722 807.29984916 1015.51352781 803.30859375 1018.4375 C794.97830859 1024.54759328 786.70549357 1030.72308369 778.5 1037 C767.98837925 1045.04102314 757.34369567 1052.89059941 746.66601562 1060.70898438 C736.64383116 1068.05188811 726.70274282 1075.48735999 716.83642578 1083.03857422 C710.33418614 1088.00664488 703.76546576 1092.87579599 697.1640625 1097.7109375 C691.22328567 1102.07277032 685.3524674 1106.52054548 679.5 1111 C672.11358208 1116.65353395 664.66805534 1122.21470194 657.1640625 1127.7109375 C651.22328567 1132.07277032 645.3524674 1136.52054548 639.5 1141 C632.11358208 1146.65353395 624.66805534 1152.21470194 617.1640625 1157.7109375 C611.22328567 1162.07277032 605.3524674 1166.52054548 599.5 1171 C592.11358208 1176.65353395 584.66805534 1182.21470194 577.1640625 1187.7109375 C571.22328295 1192.07277232 565.3525587 1196.52066136 559.5 1201 C548.58656771 1209.34995559 537.58263361 1217.58232221 526.40625 1225.578125 C525.4059375 1226.29484375 524.405625 1227.0115625 523.375 1227.75 C522.11816406 1228.63945312 522.11816406 1228.63945312 520.8359375 1229.546875 C518.88229716 1230.88225247 518.88229716 1230.88225247 518 1233 C518.53496094 1233.24234375 519.06992188 1233.4846875 519.62109375 1233.734375 C522.61855043 1235.32908102 525.31863936 1237.26302567 528.0625 1239.25 C528.66610352 1239.68401123 529.26970703 1240.11802246 529.89160156 1240.56518555 C535.85759971 1244.86854078 541.77216831 1249.24200447 547.68774414 1253.61425781 C553.10016066 1257.61148391 558.53888021 1261.56962591 564 1265.5 C572.58376866 1271.68076418 581.10201618 1277.9478594 589.60888672 1284.23388672 C593.56991162 1287.15956103 597.53515717 1290.07950306 601.5 1293 C603.08335379 1294.1666389 604.66668712 1295.33330558 606.25 1296.5 C607.03375 1297.0775 607.8175 1297.655 608.625 1298.25 C615.75 1303.5 615.75 1303.5 618.12524414 1305.25024414 C619.70768185 1306.41620806 621.29020131 1307.58206104 622.87280273 1308.74780273 C626.84551887 1311.67431443 630.81676994 1314.60277534 634.78515625 1317.53515625 C642.49539457 1323.22964599 650.22163589 1328.89882943 658 1334.5 C666.58359269 1340.68101263 675.10201249 1346.94785667 683.60888672 1353.23388672 C687.56991151 1356.15956094 691.53510594 1359.07957278 695.5 1362 C700.26381471 1365.50888924 705.02671798 1369.01897803 709.78515625 1372.53515625 C717.49539457 1378.22964599 725.22163589 1383.89882943 733 1389.5 C741.58359269 1395.68101263 750.10201249 1401.94785667 758.60888672 1408.23388672 C762.56991162 1411.15956103 766.53515717 1414.07950306 770.5 1417 C772.08335379 1418.1666389 773.66668712 1419.33330558 775.25 1420.5 C776.03375 1421.0775 776.8175 1421.655 777.625 1422.25 C784.75 1427.5 784.75 1427.5 787.12524414 1429.25024414 C788.70768185 1430.41620806 790.29020131 1431.58206104 791.87280273 1432.74780273 C795.84551887 1435.67431443 799.81676994 1438.60277534 803.78515625 1441.53515625 C811.49539457 1447.22964599 819.22163589 1452.89882943 827 1458.5 C835.58359269 1464.68101263 844.10201249 1470.94785667 852.60888672 1477.23388672 C856.56991151 1480.15956094 860.53510594 1483.07957278 864.5 1486 C869.26381471 1489.50888924 874.02671798 1493.01897803 878.78515625 1496.53515625 C886.55599874 1502.27423482 894.34488696 1507.98429619 902.1875 1513.625 C908.50636829 1518.16995877 914.75540833 1522.79681273 920.96826172 1527.48535156 C926.61664797 1531.73730414 932.34096874 1535.87814346 938.08032227 1540.00610352 C945.96991123 1545.68556315 953.79068749 1551.45674297 961.60888672 1557.23388672 C965.56991151 1560.15956094 969.53510594 1563.07957278 973.5 1566 C978.26381471 1569.50888924 983.02671798 1573.01897803 987.78515625 1576.53515625 C995.49539457 1582.22964599 1003.22163589 1587.89882943 1011 1593.5 C1019.58359269 1599.68101263 1028.10201249 1605.94785667 1036.60888672 1612.23388672 C1040.56991162 1615.15956103 1044.53515717 1618.07950306 1048.5 1621 C1050.08335379 1622.1666389 1051.66668712 1623.33330558 1053.25 1624.5 C1054.03375 1625.0775 1054.8175 1625.655 1055.625 1626.25 C1062.75 1631.5 1062.75 1631.5 1065.12548828 1633.25048828 C1066.70703036 1634.41574949 1068.28873582 1635.58078899 1069.87060547 1636.74560547 C1073.85772196 1639.68196859 1077.84182267 1642.62226925 1081.8203125 1645.5703125 C1082.62533203 1646.16585938 1083.43035156 1646.76140625 1084.25976562 1647.375 C1085.74655907 1648.47505527 1087.2323819 1649.57642483 1088.71679688 1650.6796875 C1103.79220927 1661.82418266 1119.30862067 1672.24769002 1135 1682.5 C1156.14022411 1696.31243332 1156.14022411 1696.31243332 1165.48828125 1702.9921875 C1175.52591329 1710.1645984 1185.86172489 1716.87734226 1196.1875 1723.625 C1217.58286077 1737.60795131 1217.58286077 1737.60795131 1224.9765625 1742.984375 C1234.46993716 1749.88734173 1244.36551606 1756.20384432 1254.1875 1762.625 C1275.75017724 1776.7231936 1275.75017724 1776.7231936 1281.48828125 1780.9921875 C1290.35424834 1787.5872041 1299.75565979 1793.45492357 1309 1799.5 C1330.76011311 1813.7294143 1330.76011311 1813.7294143 1338.94921875 1819.82226562 C1347.11119424 1825.64851574 1355.60836427 1831.0125257 1364 1836.5 C1385.76722624 1850.73406573 1385.76722624 1850.73406573 1393.96240234 1856.83105469 C1403.00820856 1863.29005986 1412.44736436 1869.21377074 1421.74926758 1875.29492188 C1440.73066307 1887.71298391 1440.73066307 1887.71298391 1449.60916138 1894.17034912 C1458.57770709 1900.64413547 1467.93171942 1906.5740017 1477.1875 1912.625 C1498.75017724 1926.7231936 1498.75017724 1926.7231936 1504.48828125 1930.9921875 C1513.35424834 1937.5872041 1522.75565979 1943.45492357 1532 1949.5 C1553.85426312 1963.79098105 1553.85426312 1963.79098105 1561.96777344 1969.83154297 C1566.3109765 1972.93752764 1570.76879351 1975.86245195 1575.2265625 1978.80078125 C1576.14798035 1979.40900726 1577.06939819 1980.01723328 1578.01873779 1980.64389038 C1581.87062677 1983.18448828 1585.7240652 1985.72260398 1589.58447266 1988.25024414 C1592.42832346 1990.1140522 1595.26539511 1991.98780925 1598.1015625 1993.86328125 C1599.42010727 1994.72110954 1599.42010727 1994.72110954 1600.76528931 1995.5962677 C1601.57058075 1996.13080063 1602.37587219 1996.66533356 1603.20556641 1997.21606445 C1603.91629303 1997.68268997 1604.62701965 1998.14931549 1605.35928345 1998.63008118 C1607 2000 1607 2000 1608 2003 C1606.33546212 2003.48651015 1604.66822271 2003.96377915 1603 2004.4375 C1602.071875 2004.70433594 1601.14375 2004.97117187 1600.1875 2005.24609375 C1566.57690977 2013.19565737 1531.27787461 2000.59456942 1501 1987 C1499.65276855 1986.39865234 1499.65276855 1986.39865234 1498.27832031 1985.78515625 C1484.03274043 1979.36964962 1470.48144545 1971.87789979 1457 1964 C1456.03674805 1963.44248047 1455.07349609 1962.88496094 1454.08105469 1962.31054688 C1439.0224198 1953.57523486 1424.49849937 1944.15432658 1410.07861328 1934.41235352 C1409.39506775 1933.9513324 1408.71152222 1933.49031128 1408.00726318 1933.01531982 C1406.7318726 1932.15413787 1405.45801683 1931.29067611 1404.18609619 1930.42437744 C1396.2000146 1924.71906166 1396.2000146 1924.71906166 1387 1922 C1386.34 1922.33 1385.68 1922.66 1385 1923 C1385.15439601 1931.02859257 1388.85944361 1936.30553485 1393 1943 C1395.09457156 1946.62103998 1397.08526665 1950.28089257 1399 1954 C1399.41636719 1954.78632812 1399.83273438 1955.57265625 1400.26171875 1956.3828125 C1403.66859643 1963.62691031 1404.18924403 1971.11343432 1403 1979 C1401.08776212 1982.97694655 1398.71123943 1985.08650473 1394.86328125 1987.140625 C1378.83106739 1991.95247636 1358.39929754 1986.61367843 1344 1979 C1341.14433275 1977.15061549 1338.4771877 1975.11294876 1335.8125 1973 C1335.08490479 1972.4332959 1334.35730957 1971.8665918 1333.60766602 1971.28271484 C1326.54891114 1965.7400116 1319.74354975 1959.91924068 1313 1954 C1312.26652344 1953.36707031 1311.53304687 1952.73414063 1310.77734375 1952.08203125 C1305.79951254 1947.77881372 1300.96306911 1943.32168183 1296.12109375 1938.8671875 C1291.43397025 1934.55627316 1286.71579824 1930.27949408 1282 1926 C1281.91024902 1926.67764404 1281.82049805 1927.35528809 1281.72802734 1928.0534668 C1277.58700693 1958.63668172 1270.74677123 1991.95189767 1245.30712891 2012.35791016 C1232.45696323 2022 1232.45696323 2022 1227 2022 C1227.0721875 2021.06542969 1227.144375 2020.13085938 1227.21875 2019.16796875 C1230.78957892 1968.6308205 1220.25122427 1918.5425994 1190 1877 C1188.92298828 1875.515 1188.92298828 1875.515 1187.82421875 1874 C1172.52224323 1853.28022659 1154.72794736 1832.82880203 1134.3828125 1816.88671875 C1132.11625393 1815.09205024 1129.99965956 1813.20904921 1127.875 1811.25 C1110.37476922 1795.54943834 1090.29250796 1782.32825754 1071.23388672 1768.60888672 C1067.48640216 1765.90987872 1063.74344155 1763.20461116 1060 1760.5 C1058.50002146 1759.41663696 1057.00002146 1758.33330362 1055.5 1757.25 C1040.5 1746.41666667 1025.5 1735.58333333 1010.5 1724.75 C1009.75758057 1724.21383057 1009.01516113 1723.67766113 1008.25024414 1723.12524414 C1006.7493445 1722.04121584 1005.24853078 1720.95706858 1003.74780273 1719.87280273 C1000.01226033 1717.17412345 996.27527746 1714.47748688 992.53515625 1711.78515625 C984.74084153 1706.17096822 976.975464 1700.52114617 969.25 1694.8125 C962.73277127 1689.99713071 956.17886685 1685.24135527 949.57421875 1680.546875 C945.45110426 1677.61457267 941.35034806 1674.65151724 937.25 1671.6875 C936.49195068 1671.13956787 935.73390137 1670.59163574 934.95288086 1670.02709961 C933.40666903 1668.90927547 931.86052687 1667.79135496 930.31445312 1666.67333984 C926.54406981 1663.94736861 922.77196306 1661.22378466 919 1658.5 C917.49999141 1657.41667856 915.99999142 1656.33334521 914.5 1655.25 C913.7575 1654.71375 913.015 1654.1775 912.25 1653.625 C910 1652 907.75 1650.375 905.5 1648.75 C904.75758057 1648.21383057 904.01516113 1647.67766113 903.25024414 1647.12524414 C901.7493445 1646.04121584 900.24853078 1644.95706858 898.74780273 1643.87280273 C895.01226033 1641.17412345 891.27527746 1638.47748688 887.53515625 1635.78515625 C879.74084153 1630.17096822 871.975464 1624.52114617 864.25 1618.8125 C857.73277127 1613.99713071 851.17886685 1609.24135527 844.57421875 1604.546875 C840.45110426 1601.61457267 836.35034806 1598.65151724 832.25 1595.6875 C831.49195068 1595.13956787 830.73390137 1594.59163574 829.95288086 1594.02709961 C828.40666903 1592.90927547 826.86052687 1591.79135496 825.31445312 1590.67333984 C822.29091913 1588.48733752 819.26626449 1586.30288938 816.24145508 1584.11865234 C814.74377619 1583.03711318 813.24621811 1581.95540669 811.7487793 1580.87353516 C808.01292827 1578.17458827 804.27560767 1575.47772458 800.53515625 1572.78515625 C792.74084153 1567.17096822 784.975464 1561.52114617 777.25 1555.8125 C770.73277127 1550.99713071 764.17886685 1546.24135527 757.57421875 1541.546875 C753.45110426 1538.61457267 749.35034806 1535.65151724 745.25 1532.6875 C744.49195068 1532.13956787 743.73390137 1531.59163574 742.95288086 1531.02709961 C741.40666903 1529.90927547 739.86052687 1528.79135496 738.31445312 1527.67333984 C735.29091913 1525.48733752 732.26626449 1523.30288938 729.24145508 1521.11865234 C727.74377619 1520.03711318 726.24621811 1518.95540669 724.7487793 1517.87353516 C721.01292827 1515.17458827 717.27560767 1512.47772458 713.53515625 1509.78515625 C705.74084153 1504.17096822 697.975464 1498.52114617 690.25 1492.8125 C683.73277127 1487.99713071 677.17886685 1483.24135527 670.57421875 1478.546875 C666.45110426 1475.61457267 662.35034806 1472.65151724 658.25 1469.6875 C657.49195068 1469.13956787 656.73390137 1468.59163574 655.95288086 1468.02709961 C654.40666903 1466.90927547 652.86052687 1465.79135496 651.31445312 1464.67333984 C648.29091913 1462.48733752 645.26626449 1460.30288938 642.24145508 1458.11865234 C640.74377619 1457.03711318 639.24621811 1455.95540669 637.7487793 1454.87353516 C634.01292827 1452.17458827 630.27560767 1449.47772458 626.53515625 1446.78515625 C618.74084153 1441.17096822 610.975464 1435.52114617 603.25 1429.8125 C596.73277127 1424.99713071 590.17886685 1420.24135527 583.57421875 1415.546875 C579.45110426 1412.61457267 575.35034806 1409.65151724 571.25 1406.6875 C570.49195068 1406.13956787 569.73390137 1405.59163574 568.95288086 1405.02709961 C567.40666903 1403.90927547 565.86052687 1402.79135496 564.31445312 1401.67333984 C559.79550388 1398.40615861 555.27439153 1395.1419708 550.75317383 1391.87792969 C546.98838678 1389.15966599 543.22511039 1386.43935801 539.46484375 1383.71484375 C538.70623047 1383.16570312 537.94761719 1382.6165625 537.16601562 1382.05078125 C535.76959393 1381.03987474 534.37367967 1380.0282665 532.97851562 1379.015625 C527.74452096 1375.22846688 522.46904976 1371.50108441 517.18969727 1367.77758789 C516.40127693 1367.22129951 515.6128566 1366.66501114 514.80054474 1366.09186554 C512.86714575 1364.72774591 510.93362768 1363.36379543 509 1362 C508.93106789 1399.03654588 508.87833711 1436.07308195 508.84680401 1473.10967919 C508.84305268 1477.49971462 508.83916964 1481.88974992 508.83520508 1486.27978516 C508.83402468 1487.59054129 508.83402468 1487.59054129 508.83282044 1488.92777735 C508.81982914 1503.00644002 508.79621063 1517.08506528 508.76854161 1531.16370589 C508.74031141 1545.65061705 508.7237869 1560.13750886 508.71773452 1574.62444639 C508.71365423 1583.53628645 508.70085284 1592.4480207 508.6762506 1601.35982811 C508.66017486 1607.50257814 508.65564789 1613.64527489 508.65949587 1619.78804433 C508.66138422 1623.31199445 508.6588654 1626.83576213 508.64238358 1630.35967827 C508.31426677 1712.9504216 533.09224716 1790.26530707 582 1857 C582.49886719 1857.68433105 582.99773437 1858.36866211 583.51171875 1859.07373047 C589.88193775 1867.78774791 596.51070515 1876.19840498 603.58056641 1884.35400391 C605.09050853 1886.10495502 606.58355612 1887.8693323 608.07421875 1889.63671875 C612.93439325 1895.38464151 617.81255338 1900.9824137 623.22265625 1906.2265625 C624.99867431 1907.99867723 626.62434803 1909.83976147 628.25 1911.75 C635.0515289 1919.64101865 642.56880121 1927.0324184 650.57421875 1933.6953125 C652 1935 652 1935 653 1937 C647.86570481 1936.41851662 643.25499188 1935.24231413 638.390625 1933.48046875 C637.67466156 1933.22605515 636.95869812 1932.97164154 636.22103882 1932.70951843 C633.89398459 1931.87789474 631.57161689 1931.03417651 629.25 1930.1875 C628.45132507 1929.89788391 627.65265015 1929.60826782 626.82977295 1929.30987549 C611.89693071 1923.87856519 597.36375967 1917.8093125 583 1911 C582.06124023 1910.56010742 581.12248047 1910.12021484 580.15527344 1909.66699219 C558.01367144 1899.22757587 536.54067852 1886.77148118 517 1872 C516.39978027 1871.54850586 515.79956055 1871.09701172 515.18115234 1870.63183594 C511.05092164 1867.5052232 507.00208223 1864.28879515 503 1861 C502.41573242 1860.52014648 501.83146484 1860.04029297 501.22949219 1859.54589844 C486.55880198 1847.39063856 472.67213056 1834.08365401 461 1819 C460.06585595 1817.86311961 459.12810151 1816.72919986 458.1875 1815.59765625 C441.25820855 1795.11550576 429.10937348 1772.02625273 418 1748 C416.22089786 1751.31381659 415.01800336 1754.69570135 413.8203125 1758.2578125 C413.38882719 1759.52360551 412.95632837 1760.78905337 412.52294922 1762.05419922 C412.29573181 1762.717724 412.0685144 1763.38124878 411.83441162 1764.06488037 C406.50683011 1779.53608909 400.26978744 1794.32350304 393 1809 C392.60071289 1809.81098145 392.20142578 1810.62196289 391.79003906 1811.45751953 C383.77929444 1827.57280327 374.15459959 1842.87785599 363 1857 C362.35804687 1857.83402344 361.71609375 1858.66804688 361.0546875 1859.52734375 C356.51355863 1865.34623965 351.62373468 1870.77569958 346.6015625 1876.17578125 C344.4474164 1878.51429121 342.36708563 1880.88733842 340.3125 1883.3125 C337.48203859 1886.5722257 334.43055057 1889.38623437 331.13671875 1892.171875 C328.86344379 1894.1168342 326.68924351 1896.14860655 324.5 1898.1875 C291.16780048 1928.12052544 248.39906318 1947.6056335 205.5625 1959.4375 C203.70467896 1959.95086914 203.70467896 1959.95086914 201.80932617 1960.47460938 C196.22058499 1961.98203061 190.76273612 1963.3974164 185 1964 C188.94617038 1959.88623165 193.17821654 1956.31038495 197.625 1952.75 C199.0573473 1951.59381891 200.48963879 1950.43756869 201.921875 1949.28125 C203.28110881 1948.18732455 204.64047343 1947.09356159 206 1946 C212.29014577 1940.9352073 218.45603914 1935.78624793 224.41796875 1930.3359375 C225.79190283 1929.09295326 227.17133417 1927.85514259 228.58618164 1926.65893555 C235.12137889 1921.10067163 241.13013261 1915.02080922 247.18188477 1908.94848633 C249.05829475 1907.06671726 250.93998969 1905.19035262 252.82226562 1903.31445312 C258.75873624 1897.38191509 264.62172549 1891.4516154 270 1885 C270.53133545 1884.37536865 271.0626709 1883.7507373 271.61010742 1883.10717773 C296.08743705 1854.2309815 315.95609532 1822.73571189 333 1789 C333.40605469 1788.19868652 333.81210938 1787.39737305 334.23046875 1786.57177734 C362.16294699 1730.95706918 376.23378598 1668.52900778 383 1607 C383.13641214 1605.76824287 383.27282429 1604.53648575 383.41337013 1603.26740265 C386.35987686 1575.56799305 386.47853626 1547.92955427 386.50611091 1520.09841061 C386.51564349 1513.6363112 386.54185565 1507.17427711 386.56611633 1500.71221924 C386.60450172 1489.91102094 386.63301914 1479.10984018 386.65356445 1468.30859375 C386.67471288 1457.20505178 386.7021056 1446.1015528 386.73754883 1434.99804688 C386.73974765 1434.30854796 386.74194648 1433.61904904 386.74421193 1432.90865621 C386.755285 1429.44812605 386.76647717 1425.98759629 386.77772844 1422.52706671 C386.87026725 1394.01808349 386.94194203 1365.50907319 387 1337 C384.27418848 1338.9206396 381.54902594 1340.84219803 378.82397461 1342.76391602 C378.05658714 1343.30460976 377.28919968 1343.8453035 376.49855804 1344.4023819 C371.13803165 1348.18355822 365.82405979 1352.01957707 360.5625 1355.9375 C352.16652873 1362.15472062 343.71274538 1368.28759695 335.23388672 1374.39111328 C331.48640231 1377.09012118 327.74338799 1379.79531494 324 1382.5 C319.51389621 1385.74131453 315.02695169 1388.98141954 310.53515625 1392.21484375 C302.82537027 1397.76804624 295.14242369 1403.35437205 287.5 1409 C279.12051542 1415.19011119 270.68892637 1421.30474309 262.23388672 1427.39111328 C258.48640231 1430.09012118 254.74338799 1432.79531494 251 1435.5 C246.51389621 1438.74131453 242.02695169 1441.98141954 237.53515625 1445.21484375 C229.82537027 1450.76804624 222.14242369 1456.35437205 214.5 1462 C206.12051542 1468.19011119 197.68892637 1474.30474309 189.23388672 1480.39111328 C185.48640231 1483.09012118 181.74338799 1485.79531494 178 1488.5 C173.51389621 1491.74131453 169.02695169 1494.98141954 164.53515625 1498.21484375 C156.74084153 1503.82903178 148.975464 1509.47885383 141.25 1515.1875 C134.73131921 1520.00394216 128.1755172 1524.76022935 121.5703125 1529.45703125 C110.33484157 1537.44845775 99.19855572 1545.57422395 88.10888672 1553.76635742 C80.52397852 1559.36385515 72.88444692 1564.88384856 65.23388672 1570.39111328 C61.48640231 1573.09012118 57.74338799 1575.79531494 54 1578.5 C49.51389621 1581.74131453 45.02695169 1584.98141954 40.53515625 1588.21484375 C32.82537027 1593.76804624 25.14242369 1599.35437205 17.5 1605 C9.12051542 1611.19011119 0.68892637 1617.30474309 -7.76611328 1623.39111328 C-10.76200239 1625.54880828 -13.75492725 1627.71059252 -16.74755859 1629.87280273 C-18.24887722 1630.9573777 -19.75050482 1632.0415251 -21.25244141 1633.12524414 C-24.99525469 1635.8262225 -28.7340025 1638.5325039 -32.46484375 1641.25 C-40.10750495 1646.80791956 -47.80129539 1652.26183141 -55.625 1657.5625 C-62.21076219 1662.02461909 -68.61683983 1666.65779904 -74.94189453 1671.48071289 C-80.01672767 1675.32499676 -85.22565781 1678.93561161 -90.5 1682.5 C-97.17205012 1687.01084233 -103.67455941 1691.68063047 -110.08642578 1696.55297852 C-115.47413866 1700.63703933 -120.96849275 1704.54997663 -126.50439453 1708.42993164 C-131.70248968 1712.07546432 -136.85990837 1715.77318427 -142 1719.5 C-148.50043428 1724.21061167 -155.03864183 1728.86297821 -161.60546875 1733.48046875 C-166.7656672 1737.11454566 -171.8892894 1740.79671401 -177 1744.5 C-183.50058483 1749.21040657 -190.0386388 1753.86297608 -196.60546875 1758.48046875 C-201.7656672 1762.11454566 -206.8892894 1765.79671401 -212 1769.5 C-218.50058483 1774.21040657 -225.0386388 1778.86297608 -231.60546875 1783.48046875 C-236.7656672 1787.11454566 -241.8892894 1790.79671401 -247 1794.5 C-252.80567138 1798.70686342 -258.63547467 1802.8755809 -264.5 1807 C-326.61838078 1850.75093586 -384.55213087 1902.86687175 -398.45703125 1981.32421875 C-399.55016771 1988.72451668 -400.1455338 1995.92766562 -400.09765625 2003.41015625 C-400.0962413 2004.26306747 -400.09482635 2005.1159787 -400.09336853 2005.99473572 C-400.08782939 2008.68402816 -400.0752888 2011.37323328 -400.0625 2014.0625 C-400.05747712 2015.90038941 -400.0529156 2017.73828015 -400.04882812 2019.57617188 C-400.03788 2024.05081422 -400.02065839 2028.52539238 -400 2033 C-412.09565046 2031.42513366 -420.54011653 2025.54831431 -429 2017 C-429.63679688 2016.39671875 -430.27359375 2015.7934375 -430.9296875 2015.171875 C-444.01030063 2001.80058158 -447.30339851 1981.28727532 -447.1640625 1963.359375 C-446.74840288 1954.84824954 -445.44174696 1946.39070751 -444 1938 C-444.81082031 1938.76183594 -445.62164062 1939.52367187 -446.45703125 1940.30859375 C-453.42927031 1946.82478432 -460.54002145 1953.0419638 -468 1959 C-469.16502581 1959.95585835 -470.32903246 1960.91295979 -471.4921875 1961.87109375 C-479.98433383 1968.82723624 -488.72223466 1975.135411 -498 1981 C-498.62406738 1981.39848145 -499.24813477 1981.79696289 -499.89111328 1982.20751953 C-516.50844964 1992.75882127 -540.7258044 2005.87137357 -561.17578125 2001.5390625 C-566.38434168 1999.87153845 -568.95669599 1997.51884535 -572 1993 C-575.42409365 1983.21087337 -571.24686136 1971.83109022 -567 1963 C-565.0912706 1959.47241041 -563.11208439 1955.98677568 -561.03515625 1952.55541992 C-558.73730273 1948.68759523 -557.42428097 1945.57516311 -557 1941 C-569.79404022 1941.73811771 -579.24089242 1948.27773609 -589.52416992 1955.28540039 C-606.42454778 1966.79156637 -624.15093389 1977.04514903 -642 1987 C-642.70189453 1987.39493652 -643.40378906 1987.78987305 -644.12695312 1988.19677734 C-680.80759632 2008.73402398 -726.73688632 2029.05581199 -769.66796875 2019.94921875 C-773.30645334 2018.91269852 -776.55809546 2017.56132137 -780 2016 C-778.80497949 2012.41493846 -777.87631346 2011.96377347 -774.79296875 2009.91796875 C-773.90681885 2009.32314697 -773.02066895 2008.7283252 -772.10766602 2008.11547852 C-770.66218384 2007.16112915 -770.66218384 2007.16112915 -769.1875 2006.1875 C-767.15811334 2004.82662492 -765.1294824 2003.46462231 -763.1015625 2002.1015625 C-762.07450195 2001.41352539 -761.04744141 2000.72548828 -759.98925781 2000.01660156 C-755.64300588 1997.08454987 -751.34962058 1994.080087 -747.0625 1991.0625 C-745.41418271 1989.90477675 -743.76574351 1988.74722704 -742.1171875 1987.58984375 C-741.28541992 1987.0057373 -740.45365234 1986.42163086 -739.59667969 1985.81982422 C-734.96857044 1982.57631855 -730.32787255 1979.35092535 -725.6875 1976.125 C-724.24709351 1975.12351929 -724.24709351 1975.12351929 -722.77758789 1974.10180664 C-720.82622923 1972.74519745 -718.87481302 1971.38867103 -716.92333984 1970.03222656 C-712.11469838 1966.68938945 -707.30741108 1963.34460619 -702.5 1960 C-700.58333997 1958.66665713 -698.6666733 1957.3333238 -696.75 1956 C-695.80125 1955.34 -694.8525 1954.68 -693.875 1954 C-662.25000001 1932 -662.25000001 1932 -659.37426758 1929.99951172 C-657.46001577 1928.66784415 -655.54579046 1927.3361385 -653.6315918 1926.00439453 C-648.80319568 1922.64526025 -643.97432293 1919.28681497 -639.14453125 1915.9296875 C-630.08703587 1909.63303296 -621.03410575 1903.33017898 -612 1897 C-601.99108783 1889.9867762 -591.95863195 1883.00763194 -581.92333984 1876.03222656 C-577.11469838 1872.68938945 -572.30741108 1869.34460619 -567.5 1866 C-565.58333997 1864.66665713 -563.6666733 1863.3333238 -561.75 1862 C-560.80125 1861.34 -559.8525 1860.68 -558.875 1860 C-412.24999995 1757.99999997 -412.24999995 1757.99999997 -409.37426758 1755.99951172 C-407.46001577 1754.66784415 -405.54579046 1753.3361385 -403.6315918 1752.00439453 C-398.80319568 1748.64526025 -393.97432293 1745.28681497 -389.14453125 1741.9296875 C-380.08703587 1735.63303296 -371.03410575 1729.33017898 -362 1723 C-351.99108783 1715.9867762 -341.95863195 1709.00763194 -331.92333984 1702.03222656 C-327.11469838 1698.68938945 -322.30741108 1695.34460619 -317.5 1692 C-315.58333997 1690.66665713 -313.6666733 1689.3333238 -311.75 1688 C-310.80125 1687.34 -309.8525 1686.68 -308.875 1686 C-162.24999998 1583.99999999 -162.24999998 1583.99999999 -159.37426758 1581.99951172 C-157.46001577 1580.66784415 -155.54579046 1579.3361385 -153.6315918 1578.00439453 C-148.80319568 1574.64526025 -143.97432293 1571.28681497 -139.14453125 1567.9296875 C-130.08703587 1561.63303296 -121.03410575 1555.33017898 -112 1549 C-104.90494748 1544.02851155 -97.79988939 1539.07165423 -90.6875 1534.125 C-89.73439941 1533.46161621 -88.78129883 1532.79823242 -87.79931641 1532.11474609 C-82.83492532 1528.66078497 -77.86513518 1525.21496894 -72.88671875 1521.78125 C-63.36523359 1515.20522709 -53.93951124 1508.60326924 -44.84716797 1501.44189453 C-40.73992483 1498.23579118 -36.58370505 1495.09292923 -32.4375 1491.9375 C-31.51694824 1491.23625 -30.59639648 1490.535 -29.64794922 1489.8125 C-24.21052723 1485.67305588 -18.75579732 1481.55892903 -13.28125 1477.46875 C-8.66612776 1474.00740832 -4.08652975 1470.49906802 0.5 1467 C6.88590976 1462.12818321 13.28423497 1457.27614629 19.71875 1452.46875 C24.33387224 1449.00740832 28.91347025 1445.49906802 33.5 1442 C39.88590976 1437.12818321 46.28423497 1432.27614629 52.71875 1427.46875 C57.33387224 1424.00740832 61.91347025 1420.49906802 66.5 1417 C71.98617592 1412.81459103 77.47202786 1408.63009413 83 1404.5 C88.44450569 1400.43217646 93.84718889 1396.31049628 99.25 1392.1875 C106.10745867 1386.95493986 112.98341973 1381.74949253 119.89257812 1376.58544922 C126.46134869 1371.66881394 132.9812593 1366.68850354 139.50390625 1361.7109375 C144.88916208 1357.60300443 150.29274198 1353.52266404 155.71875 1349.46875 C160.33387224 1346.00740832 164.91347025 1342.49906802 169.5 1339 C175.88590976 1334.12818321 182.28423497 1329.27614629 188.71875 1324.46875 C193.33387224 1321.00740832 197.91347025 1317.49906802 202.5 1314 C208.88590976 1309.12818321 215.28423497 1304.27614629 221.71875 1299.46875 C226.33387224 1296.00740832 230.91347025 1292.49906802 235.5 1289 C241.88590976 1284.12818321 248.28423497 1279.27614629 254.71875 1274.46875 C259.33387224 1271.00740832 263.91347025 1267.49906802 268.5 1264 C274.87928334 1259.13323851 281.27019494 1254.28520899 287.69921875 1249.484375 C293.34022915 1245.25407701 298.93085818 1240.95628939 304.52929688 1236.66992188 C308.33630018 1233.76135998 312.14170842 1230.87785257 316.07421875 1228.140625 C319.03056125 1226.32036373 319.03056125 1226.32036373 320 1224 C319.13000366 1223.59056152 319.13000366 1223.59056152 318.24243164 1223.17285156 C316.02497293 1222.01306151 314.12670769 1220.72740747 312.12109375 1219.234375 C311.37448486 1218.68120605 310.62787598 1218.12803711 309.85864258 1217.55810547 C309.05966553 1216.96143066 308.26068848 1216.36475586 307.4375 1215.75 C305.72143442 1214.47645436 304.00528626 1213.20301998 302.2890625 1211.9296875 C301.4115332 1211.27709961 300.53400391 1210.62451172 299.62988281 1209.95214844 C296.32414635 1207.49831732 293.00729823 1205.05982254 289.68969727 1202.62207031 C282.4459046 1197.29839975 275.23224203 1191.93711317 268.04907227 1186.53198242 C262.97340372 1182.71752918 257.86628048 1178.9472544 252.75 1175.1875 C245.29513899 1169.7084802 237.88467217 1164.17300738 230.49023438 1158.61279297 C223.97755391 1153.72066842 217.42696052 1148.8819849 210.86328125 1144.05859375 C205.23520087 1139.91947307 199.63982598 1135.73901937 194.05761719 1131.53833008 C188.89580363 1127.65926954 183.7023292 1123.82450525 178.5 1120 C171.99197607 1115.21561002 165.51269943 1110.39587442 159.05859375 1105.5390625 C153.89645299 1101.6597599 148.70265715 1097.82474635 143.5 1094 C136.99197607 1089.21561002 130.51269943 1084.39587442 124.05859375 1079.5390625 C118.89645299 1075.6597599 113.70265715 1071.82474635 108.5 1068 C101.99197607 1063.21561002 95.51269943 1058.39587442 89.05859375 1053.5390625 C83.89645299 1049.6597599 78.70265715 1045.82474635 73.5 1042 C66.99197607 1037.21561002 60.51269943 1032.39587442 54.05859375 1027.5390625 C48.89645299 1023.6597599 43.70265715 1019.82474635 38.5 1016 C31.99197607 1011.21561002 25.51269943 1006.39587442 19.05859375 1001.5390625 C13.89645299 997.6597599 8.70265715 993.82474635 3.5 990 C-3.00802393 985.21561002 -9.48730057 980.39587442 -15.94140625 975.5390625 C-21.10354701 971.6597599 -26.29734285 967.82474635 -31.5 964 C-38.00802393 959.21561002 -44.48730057 954.39587442 -50.94140625 949.5390625 C-56.10354701 945.6597599 -61.29734285 941.82474635 -66.5 938 C-72.35534669 933.69542731 -78.19296114 929.36953 -84 925 C-97.98680376 914.48244777 -111.98585058 903.97856222 -126.56640625 894.29296875 C-132.56971752 890.29471689 -138.53972197 886.24952881 -144.5 882.1875 C-146.70173819 880.6886774 -148.90355444 879.18997005 -151.10546875 877.69140625 C-151.66965012 877.30736633 -152.23383148 876.92332642 -152.81510925 876.52764893 C-159.14334619 872.22053715 -165.47770497 867.9224579 -171.8125 863.625 C-172.98958484 862.82641824 -174.16666817 862.02783425 -175.34375 861.22924805 C-177.71302058 859.62185919 -180.08233061 858.0145285 -182.45166016 856.40722656 C-187.71912716 852.83382385 -192.98605512 849.25962676 -198.25302124 845.68548584 C-201.16865851 843.70695767 -204.08433105 841.72848148 -207 839.75 C-208.16666684 838.95833358 -209.3333335 838.16666692 -210.5 837.375 C-211.36625 836.7871875 -211.36625 836.7871875 -212.25 836.1875 C-327.75002003 757.81248641 -327.75002003 757.81248641 -471.24995422 660.43753052 C-472.4167728 659.64576113 -473.58359206 658.85399274 -474.75041199 658.06222534 C-477.66475992 656.08463845 -480.57909617 654.10703434 -483.4934082 652.12939453 C-488.77106851 648.54802132 -494.04881703 644.96677843 -499.32699585 641.38616943 C-512.08074544 632.73427012 -524.83089076 624.07714468 -537.57373047 615.40917969 C-548.860257 607.73284556 -560.15593583 600.07001586 -571.45166016 592.40722656 C-576.71912716 588.83382385 -581.98605512 585.25962676 -587.25302124 581.68548584 C-590.16865851 579.70695767 -593.08433105 577.72848148 -596 575.75 C-597.16666684 574.95833358 -598.3333335 574.16666692 -599.5 573.375 C-600.0775 572.983125 -600.655 572.59125 -601.25 572.1875 C-606.50000003 568.62499998 -606.50000003 568.62499998 -608.24978638 567.43763733 C-609.41715567 566.64549897 -610.58453442 565.85337455 -611.75192261 565.06126404 C-614.65791661 563.08942814 -617.56374899 561.11735493 -620.46923828 559.14477539 C-625.84628437 555.49457725 -631.22481189 551.84662785 -636.60888672 548.20680237 C-662.0387113 531.01492726 -662.0387113 531.01492726 -673 523 C-665.99676369 515.35719873 -655.2722386 513.4362147 -645.29296875 512.7421875 C-592.90324655 510.72188923 -543.16564238 547.92811567 -500.7722168 574.51586914 C-493.6024714 579.01032739 -486.40731696 583.46140816 -479.1875 587.875 C-478.2080542 588.47658936 -477.2286084 589.07817871 -476.21948242 589.69799805 C-475.31560791 590.24883057 -474.4117334 590.79966309 -473.48046875 591.3671875 C-472.68535889 591.85300293 -471.89024902 592.33881836 -471.07104492 592.83935547 C-467.47548959 594.85435842 -464.55274365 595.16026382 -460.5 595.1875 C-459.06140625 595.20876953 -459.06140625 595.20876953 -457.59375 595.23046875 C-454.76253861 595.18755111 -454.76253861 595.18755111 -452 593 C-450.98043348 586.40331748 -453.68583293 581.25714245 -456.3125 575.3125 C-461.41325152 563.255278 -466.12171168 551.38181931 -464 538 C-461.4385751 534.15254849 -459.51645941 532.15537334 -455 531 C-437.49616311 530.23896361 -419.33181615 539.34998189 -406 550 C-404.42440256 551.18913014 -402.84876265 552.37820556 -401.27172852 553.56542969 C-395.03302698 558.290009 -389.04261517 563.27613214 -383.1015625 568.3671875 C-380.36706908 570.70503651 -377.5668698 572.94932248 -374.75 575.1875 C-368.89470288 579.93900032 -363.46158181 585.12036298 -358.01269531 590.32885742 C-354.11920234 594.04491965 -350.18275852 597.61176861 -346 601 C-345.98598145 599.67331299 -345.98598145 599.67331299 -345.97167969 598.31982422 C-345.3685345 552.72323052 -345.3685345 552.72323052 -336 533 C-335.55914062 532.05125 -335.11828125 531.1025 -334.6640625 530.125 C-327.84650462 516.56521637 -317.18874371 506.98276859 -303.03125 501.62890625 C-301 501 -301 501 -299 501 C-299.0721875 502.26070313 -299.144375 503.52140625 -299.21875 504.8203125 C-302.38225612 562.86840627 -289.84950751 610.06426498 -250.6875 653.875 C-249.12719299 655.58533653 -247.56450056 657.2934986 -246 659 C-245.01529184 660.08954274 -244.03093497 661.17940304 -243.046875 662.26953125 C-238.30471359 667.49789531 -233.60419461 672.6012906 -228.1796875 677.13671875 C-225.84864117 679.12938738 -223.61291505 681.20348507 -221.3737793 683.2980957 C-216.08269372 688.24599229 -210.70629722 693.00139325 -205.0546875 697.5390625 C-202.73025917 699.41168379 -200.42627726 701.30101765 -198.1328125 703.2109375 C-190.29281502 709.73361077 -182.36378341 716.09248682 -174.23144531 722.24731445 C-169.63042886 725.73407186 -165.10910707 729.30203052 -160.625 732.9375 C-154.31201805 738.0418643 -147.81476456 742.86230427 -141.25830078 747.64819336 C-135.76168475 751.67114292 -130.35788556 755.79439217 -125 760 C-118.91088887 764.77768207 -112.74879618 769.43317995 -106.5 774 C-100.25119133 778.56682917 -94.08937074 783.22263732 -88 788 C-80.30610813 794.03326682 -72.47367574 799.8562423 -64.5859375 805.6328125 C-60.36659609 808.72370489 -56.17799606 811.85353676 -52 815 C-46.30036328 819.29093791 -40.56509099 823.53036831 -34.8125 827.75 C-27.87696282 832.83923367 -21.01657584 838.01890454 -14.1875 843.25 C-7.99497429 847.99273497 -1.76848608 852.65131569 4.61450195 857.13378906 C10.96056619 861.62167513 17.09408849 866.38896175 23.26171875 871.1171875 C28.11766027 874.83096673 32.99705296 878.48689003 38 882 C43.86667635 886.12097811 49.56129716 890.44979696 55.25 894.8125 C61.76527027 899.80847263 68.32013738 904.72621451 75 909.5 C82.51246627 914.86975548 89.85715377 920.43845711 97.18359375 926.05859375 C102.72572237 930.29860698 108.32325628 934.44229192 114 938.5 C121.51241159 943.86983431 128.85715094 949.43845495 136.18359375 955.05859375 C141.72572672 959.29861031 147.32333958 963.44217111 153 967.5 C160.48272301 972.85075074 167.80661898 978.390064 175.10888672 983.98388672 C183.2182023 990.18827957 191.42517358 996.25252428 199.66162109 1002.28662109 C210.99695124 1010.59225348 222.29094239 1018.94965536 233.52148438 1027.39648438 C239.13380251 1031.61335434 244.77649561 1035.78629344 250.4375 1039.9375 C257.29013273 1044.96367091 264.06592945 1050.08245269 270.8125 1055.25 C277.00504281 1059.99271254 283.23151325 1064.65131521 289.61450195 1069.13378906 C295.96056619 1073.62167513 302.09408849 1078.38896175 308.26171875 1083.1171875 C313.11766027 1086.83096673 317.99705296 1090.48689003 323 1094 C328.8666832 1098.12098291 334.56117772 1102.4499439 340.25 1106.8125 C347.40800353 1112.29863597 354.61889888 1117.68881406 361.95558357 1122.93364239 C367.69105681 1127.04064095 373.38013366 1131.20778636 379.0546875 1135.3984375 C379.92085693 1136.03740967 380.78702637 1136.67638184 381.67944336 1137.3347168 C383.78666105 1138.88931701 385.893507 1140.44441805 388 1142 C384.73031477 1058.57553225 381.45581113 975.15125308 371.18500996 714.79022789 C371.14875949 713.87435228 371.11250902 712.95847667 371.07516005 712.01484726 C370.85617459 706.48215941 370.85617459 706.48215941 370.63718348 700.94947179 C370.09247885 687.18769134 369.54845252 673.4258842 369.00479126 659.6640625 C368.38306601 643.92633381 367.76043795 628.18864113 367.13661963 612.45099527 C366.81658125 604.37658169 366.49691513 596.30215383 366.17834663 588.22768211 C365.91286533 581.49879346 365.64654235 574.76993879 365.37911915 568.04112702 C365.24444915 564.65200087 365.1102892 561.26285674 364.97696459 557.87367725 C364.46303695 544.81527635 363.9218865 531.76186303 363.19434357 518.7134428 C362.95682961 514.1751167 362.83418907 509.64523368 362.7890625 505.1015625 C362.76334308 503.39159044 362.73686218 501.68162971 362.7097168 499.97167969 C362.68982193 498.66668518 362.68982193 498.66668518 362.66952515 497.33532715 C361.62742555 433.90081765 357.64131196 367.08164109 330 308.9375 C329.27067261 307.40307251 329.27067261 307.40307251 328.52661133 305.83764648 C312.22086443 272.45124225 285.57471236 247.40361174 252 232 C250.91074219 231.48050781 249.82148437 230.96101562 248.69921875 230.42578125 C223.44381835 218.90205963 195.42231967 213.94256025 168 211 C167.1133667 210.90428711 166.2267334 210.80857422 165.31323242 210.70996094 C111.33890792 205.3178433 50.55241492 219.61113365 7.82617188 253.99121094 C5.13807748 256.24461349 2.5578647 258.60056678 0 261 C-0.60295898 261.56058105 -1.20591797 262.12116211 -1.82714844 262.69873047 C-11.05478867 271.35934844 -19.00617649 280.45055636 -26 291 C-26.64324219 291.9590625 -27.28648437 292.918125 -27.94921875 293.90625 C-42.48271646 317.15984634 -47.27174586 341.99380956 -41.15234375 368.69921875 C-33.84731971 395.58289023 -18.32168799 416.41358277 5.7019043 430.44042969 C8.44589583 432.00307544 11.21219368 433.51704696 14 435 C14.72574219 435.38929688 15.45148437 435.77859375 16.19921875 436.1796875 C22.15234028 438.8915216 30.33723802 438.76078914 36.5 437 C37.325 436.67 38.15 436.34 39 436 C38.53082515 431.21855635 37.45313039 428.85882293 34.25 425.3125 C24.25024823 413.37731241 21.97568562 400.22067153 23 385 C25.31210247 370.85643569 32.77384332 359.60033832 43.875 350.6875 C59.62212307 339.67073801 78.52632264 338.01788634 97.14453125 340.46875 C109.88393951 342.82841989 118.93647394 348.96844404 128 358 C128.57621094 358.55300781 129.15242187 359.10601562 129.74609375 359.67578125 C139.69349996 370.08826099 142.52307701 384.48714155 142.23828125 398.3671875 C140.83194885 419.80799298 129.67349136 436.9125167 114 451 C109.04531251 455.13772426 104.1629193 457.30993244 98 459.125 C97.17201904 459.37725342 96.34403809 459.62950684 95.4909668 459.8894043 C61.87372292 469.8767384 25.59156793 468.97839419 -6 453 C-7.03640625 452.48695313 -8.0728125 451.97390625 -9.140625 451.4453125 C-21.11349381 445.28864773 -31.25357981 437.22482278 -41 428 C-41.94617188 427.12988281 -42.89234375 426.25976562 -43.8671875 425.36328125 C-70.07758409 400.73099754 -87.66423798 361.94355814 -89.12451172 325.92919922 C-90.23493675 277.10498292 -71.54465742 244.17978511 -38.6171875 209.390625 C-15.42670841 185.38438401 21.4506393 158.37171133 56.0546875 156.8671875 C57.01761719 156.93292969 57.01761719 156.93292969 58 157 C56.28391136 153.46056718 54.21015133 151.18871314 51.25 148.6875 C47.03659117 145.11876575 43.52344057 141.24007256 40 137 C39.2884375 136.1646875 38.576875 135.329375 37.84375 134.46875 C32.37628287 127.95272753 27.54461125 121.18328862 23 114 C22.39333496 113.05157227 22.39333496 113.05157227 21.77441406 112.08398438 C4.62920066 85.17283678 -20.89952384 43.69168564 -14.1875 10.1875 C-13.32041871 6.71302533 -12.17220055 3.8962674 -10 1 C-6.75718021 -0.6214099 -3.51448008 -0.41273254 0 0 Z " fill="#000000" transform="translate(792,0)"/>
<path d="M0 0 C0.88300781 0.66902344 1.76601562 1.33804688 2.67578125 2.02734375 C9.45277413 7.31274968 15.76951529 13.09024568 22 19 C22.50321777 19.47453613 23.00643555 19.94907227 23.52490234 20.43798828 C40.35429562 36.41210844 53.22035908 55.53653262 64 76 C64.33741211 76.63534668 64.67482422 77.27069336 65.02246094 77.92529297 C96.88674746 138.87156977 95.86891562 213.54657228 76.11035156 277.89746094 C65.3049146 311.53162217 47.55669406 342.59162869 23 368 C22.12859375 368.92296875 21.2571875 369.8459375 20.359375 370.796875 C13.44199003 377.95697524 5.97614627 384.06757919 -2 390 C-2.88075195 390.65597168 -2.88075195 390.65597168 -3.77929688 391.32519531 C-11.92258537 397.34942918 -20.31000609 402.7984683 -29 408 C35.35500505 408.27379733 35.35500505 408.27379733 98 395 C99.04776611 394.66427979 99.04776611 394.66427979 100.11669922 394.32177734 C127.96153678 385.23913727 150.89846542 368.17415524 172.171875 348.58203125 C174 347 174 347 175 347 C174.46616687 352.88227998 173.55937137 358.49537033 172.11401367 364.21923828 C171.92522141 364.98649734 171.73642914 365.75375641 171.54191589 366.54426575 C170.92279464 369.05435294 170.29550861 371.56231804 169.66796875 374.0703125 C169.2301097 375.83743956 168.79272499 377.60468422 168.35578918 379.37203979 C167.44045741 383.06953795 166.52143355 386.76609016 165.59936523 390.46191406 C164.42797216 395.15710537 163.26264436 399.85377237 162.09974194 404.55107307 C160.97861845 409.07880824 159.85476769 413.60586496 158.73046875 418.1328125 C158.52118429 418.9761124 158.31189983 419.81941231 158.09627342 420.68826675 C155.49650958 431.15330187 152.81768893 441.59132544 150 452 C126.08450112 452.1134059 102.17230423 452.04151803 78.2578125 451.8125 C77.30009571 451.80355713 76.34237892 451.79461426 75.35564041 451.78540039 C64.33034098 451.68147557 53.30607954 451.55032601 42.28173828 451.37109375 C38.25556179 451.307938 34.22935757 451.24696919 30.203125 451.1875 C28.71817598 451.16515793 28.71817598 451.16515793 27.203228 451.1423645 C14.5971611 450.96273905 2.04402628 451.06497567 -10.55388069 451.54281807 C-15.0524359 451.70102962 -19.55285659 451.79412559 -24.05321407 451.88520718 C-27.4872844 451.96193347 -30.9043815 452.08648628 -34.33084106 452.33181763 C-50.99339156 453.4419722 -50.99339156 453.4419722 -58 450 C-64.6471237 443.72002601 -68.48080751 435.6207849 -72.31471252 427.4347229 C-75.08278699 421.79321135 -78.45488081 416.5581102 -81.8125 411.25 C-88.3555926 400.60428795 -88.3555926 400.60428795 -91 395 C-87.43055328 393.96430561 -83.87111888 392.96764491 -80.265625 392.0625 C-64.64059134 388.02150947 -49.99295111 380.92596258 -38 370 C-37.15179687 369.2575 -36.30359375 368.515 -35.4296875 367.75 C-27.7981918 361.00694709 -20.78363271 354.12351185 -14.625 346 C-14.06264648 345.25943359 -13.50029297 344.51886719 -12.92089844 343.75585938 C-7.71828824 336.79725681 -3.22649605 329.58122865 1 322 C1.36544922 321.36191406 1.73089844 320.72382812 2.10742188 320.06640625 C18.88990303 290.68979278 28.62582778 256.58478394 32 223 C32.16628906 221.37578125 32.16628906 221.37578125 32.3359375 219.71875 C36.17492725 175.31097666 28.4540917 125.90725376 2 89 C1.30261719 88.0203125 0.60523437 87.040625 -0.11328125 86.03125 C-5.02564996 79.31174047 -10.27867897 73.04187043 -16 67 C-16.76957031 66.17757813 -17.53914063 65.35515625 -18.33203125 64.5078125 C-28.28211995 54.1880113 -39.57746478 46.10938565 -52 39 C-52.60730957 38.64583008 -53.21461914 38.29166016 -53.84033203 37.92675781 C-89.80267889 17.13301503 -132.20355511 9.78406356 -173.3125 9.75 C-174.05333832 9.74932526 -174.79417664 9.74865051 -175.5574646 9.74795532 C-231.71343431 9.8285472 -283.3562587 30.95112635 -323.37109375 70.33935547 C-327.25544294 74.29938892 -330.63770223 78.59833272 -334 83 C-334.78503906 83.95777344 -335.57007813 84.91554688 -336.37890625 85.90234375 C-363.64582925 119.74063786 -379.44378859 166.47976495 -377 210 C-376.95891113 210.74588379 -376.91782227 211.49176758 -376.87548828 212.26025391 C-373.49350196 268.47902338 -346.84941514 317.87854238 -306 356 C-302.95357055 358.65573476 -299.83455372 361.20250532 -296.65625 363.69873047 C-295.48623083 364.61798197 -294.31990841 365.54194799 -293.15625 366.46923828 C-282.94358152 374.59226106 -272.36533897 381.76384263 -261.25 388.58935547 C-257.44419734 390.97541534 -253.72114308 393.48459965 -250 396 C-253.52822936 403.34778042 -257.42261055 410.24937751 -261.98095703 417.00512695 C-265.74077324 422.66567217 -268.52779707 428.24842697 -270.93164062 434.61157227 C-273.74737037 440.22236887 -276.99401358 445.13237941 -282 449 C-287.74337466 450.38128443 -293.22295112 450.02352298 -299.08251953 449.68945312 C-300.77300898 449.63483121 -302.46369568 449.5860407 -304.15451241 449.54271698 C-307.68109887 449.4470276 -311.20528917 449.32488774 -314.73032379 449.18334961 C-322.15974555 448.90182445 -329.58777825 448.91392324 -337.02149558 448.91151524 C-341.16846753 448.90588363 -345.31525901 448.87583805 -349.46212769 448.84753418 C-351.16644121 448.83656316 -352.87075513 448.82565369 -354.57506943 448.81480408 C-355.43181558 448.80928213 -356.28856174 448.80376019 -357.17126989 448.79807091 C-361.69410015 448.76918141 -366.21693883 448.74167074 -370.73977661 448.71398926 C-379.23480765 448.66179944 -387.72983089 448.60844009 -396.22485173 448.5546174 C-405.92566353 448.49321527 -415.62648367 448.43318263 -425.3273046 448.37324238 C-445.21821244 448.25030925 -465.10910966 448.1257299 -485 448 C-487.07082956 442.03414259 -488.84715462 436.05775019 -490.37597656 429.93188477 C-490.59259949 429.0754689 -490.80922241 428.21905304 -491.03240967 427.33668518 C-491.73884407 424.53917483 -492.44006782 421.74039373 -493.140625 418.94140625 C-493.63187547 416.98605305 -494.12323047 415.0307261 -494.61468506 413.07542419 C-495.63918298 408.99532333 -496.66079488 404.91451214 -497.68066406 400.83325195 C-498.99054905 395.59340528 -500.31017979 390.3560658 -501.63223648 385.11927891 C-502.64757601 381.09117121 -503.65654529 377.06148837 -504.66368866 373.03132439 C-505.14786272 371.09817634 -505.63433475 369.16560238 -506.12311554 367.23361397 C-506.80262072 364.54481103 -507.47324328 361.85394543 -508.14160156 359.16235352 C-508.34619995 358.36081848 -508.55079834 357.55928345 -508.76159668 356.73345947 C-510.11416254 351.22832508 -510.11416254 351.22832508 -509 349 C-508.50371094 349.6290625 -508.00742188 350.258125 -507.49609375 350.90625 C-503.65404317 355.74708793 -499.7592147 360.50485928 -495.640625 365.11328125 C-494.41378605 366.52414605 -493.24242898 367.9835953 -492.1015625 369.46484375 C-468.51839803 397.9136797 -423.840714 408.29433187 -389.01171875 411.6640625 C-387.67480935 411.77991707 -386.33755519 411.89185586 -385 412 C-383.96480225 412.08459473 -383.96480225 412.08459473 -382.90869141 412.17089844 C-358.87838195 414.0248689 -334.99129006 412.6532072 -311 411 C-314.44583118 408.2292778 -317.93700235 405.55591174 -321.5 402.9375 C-332.84435556 394.42923333 -343.11046316 385.15131869 -353 375 C-353.83402344 374.16855469 -354.66804688 373.33710937 -355.52734375 372.48046875 C-364.98743149 362.99049131 -373.27953087 352.93996554 -381 342 C-381.51288574 341.27377441 -382.02577148 340.54754883 -382.55419922 339.79931641 C-413.99551861 294.68019026 -432.55745046 240.4230785 -432.3125 185.3125 C-432.30926727 183.9963118 -432.30926727 183.9963118 -432.30596924 182.65353394 C-432.25318011 169.22999155 -431.74803739 156.17971573 -429 143 C-428.80132324 142.01612305 -428.60264648 141.03224609 -428.39794922 140.01855469 C-424.07397937 119.1145087 -417.08135021 99.79079548 -407 81 C-406.65888184 80.34725098 -406.31776367 79.69450195 -405.96630859 79.02197266 C-400.30220577 68.2029295 -393.60187515 58.54412639 -386 49 C-385.57557617 48.45843262 -385.15115234 47.91686523 -384.71386719 47.35888672 C-372.65142114 32.05182589 -358.43180701 17.67107728 -342.65234375 6.21240234 C-340.97252466 4.97984005 -339.32924445 3.70851425 -337.6875 2.42578125 C-313.7752745 -16.01150002 -286.56290902 -30.62908044 -257.25 -38 C-256.5811377 -38.1698642 -255.91227539 -38.33972839 -255.22314453 -38.51473999 C-234.68175963 -43.72331808 -214.07785683 -47.70892861 -193 -50 C-191.80117187 -50.13277344 -190.60234375 -50.26554688 -189.3671875 -50.40234375 C-125.67549507 -56.11425229 -51.32075766 -39.09154222 0 0 Z " fill="#000000" transform="translate(2213,988)"/>
<path d="M0 0 C0.84915759 1.40458791 1.64147498 2.84430739 2.390625 4.3046875 C3.07330444 5.62448608 3.07330444 5.62448608 3.76977539 6.97094727 C4.25824951 7.92928467 4.74672363 8.88762207 5.25 9.875 C6.02041626 11.36954712 6.02041626 11.36954712 6.80639648 12.89428711 C7.93092664 15.07633351 9.05312957 17.25958039 10.17333984 19.44384766 C12.11349784 23.22095823 14.06481869 26.9921282 16.01953125 30.76171875 C18.63101327 35.79969403 21.241691 40.83807448 23.84765625 45.87890625 C24.38398682 46.9160376 24.92031738 47.95316895 25.47290039 49.02172852 C25.97684326 50.00455811 26.48078613 50.9873877 27 52 C27.58064209 53.07499756 28.16128418 54.14999512 28.75952148 55.25756836 C29.16887939 56.1625708 29.5782373 57.06757324 30 58 C29.67 58.66 29.34 59.32 29 60 C28.57332031 59.56429687 28.14664063 59.12859375 27.70703125 58.6796875 C3.55437581 35.67241572 -41.50433695 38.80491243 -72.5 38.875 C-73.62676147 38.87588623 -74.75352295 38.87677246 -75.91442871 38.87768555 C-97.28691094 38.8973148 -118.63933846 39.31118278 -140 40 C-139.69932617 40.47606689 -139.39865234 40.95213379 -139.08886719 41.44262695 C-98.39257812 105.87841797 -57.69628906 170.31420898 -17 234.75 C-16.5052417 235.53334717 -16.0104834 236.31669434 -15.50073242 237.1237793 C-14.49821757 238.71113526 -13.49577646 240.29853779 -12.4934082 241.88598633 C-10.03248037 245.78315395 -7.57038288 249.67957101 -5.10546875 253.57421875 C0.41653701 262.30270013 5.90831604 271.0492527 11.375 279.8125 C17.41686985 289.49524107 23.52319989 299.13513447 29.66015625 308.7578125 C34.30851522 316.04761989 38.92000322 323.36063971 43.53222656 330.67333984 C46.01983357 334.61660245 48.51006414 338.55820768 51 342.5 C52.00001224 344.0833256 53.00001225 345.66665893 54 347.25 C54.495 348.03375 54.99 348.8175 55.5 349.625 C84 394.75 84 394.75 85.50024414 397.12548828 C86.49930785 398.70727138 87.49849386 400.28897724 88.49780273 401.87060547 C91.01314153 405.85202979 93.52627637 409.83481447 96.03515625 413.8203125 C97.04417878 415.42193299 98.05329276 417.02349589 99.0625 418.625 C99.55137695 419.40157959 100.04025391 420.17815918 100.54394531 420.97827148 C103.06527024 424.97342848 105.61129539 428.9499506 108.19921875 432.90234375 C108.71154053 433.68593262 109.2238623 434.46952148 109.75170898 435.27685547 C110.73015939 436.7694826 111.71257595 438.25951945 112.69946289 439.74658203 C116 444.78034499 116 444.78034499 116 447 C150.66898339 440.3371687 182.9890676 430.11466725 209.2578125 405.43359375 C211 404 211 404 213 404 C211.57071451 421.45015116 210.12892244 438.89946098 208.56802368 456.33840942 C208.4397932 457.77440832 208.31264916 459.21050467 208.18661499 460.646698 C208.01041372 462.65016522 207.82953275 464.65321922 207.6484375 466.65625 C207.54708496 467.78869141 207.44573242 468.92113281 207.34130859 470.08789062 C207.05911618 472.49560955 206.61459316 474.66576069 206 477 C177.09583463 477.12336199 148.20154059 476.78185136 119.3003397 476.39421272 C112.86632532 476.3084261 106.43227581 476.22535593 99.99822998 476.14196777 C89.24407972 476.00223638 78.48995192 475.86089827 67.73583984 475.71826172 C56.68084126 475.57163896 45.62583001 475.42603319 34.57080078 475.28173828 C33.88428886 475.27277729 33.19777693 475.26381631 32.49046162 475.25458378 C29.04491607 475.20961543 25.59937026 475.16466647 22.15382433 475.11972713 C-6.23082352 474.74948888 -34.61542597 474.37585329 -63 474 C-63.64531547 472.7166819 -64.28979741 471.43294463 -64.93392467 470.14902973 C-65.47240183 469.0767752 -65.47240183 469.0767752 -66.0217573 467.98285896 C-67.04870543 465.90127604 -67.98117078 463.8046576 -68.84692383 461.65112305 C-69.15016068 460.9006218 -69.45339752 460.15012054 -69.76582336 459.37687683 C-70.07642197 458.59637466 -70.38702057 457.8158725 -70.70703125 457.01171875 C-71.03668381 456.18670364 -71.36633636 455.36168854 -71.70597839 454.51167297 C-72.39441096 452.78387291 -73.08085585 451.05527963 -73.76538086 449.32592773 C-74.81796322 446.67373431 -75.88439712 444.02737075 -76.95117188 441.38085938 C-77.62064805 439.69565246 -78.28929786 438.01011697 -78.95703125 436.32421875 C-79.27775101 435.53359543 -79.59847076 434.74297211 -79.9289093 433.9283905 C-82.11429986 428.34289957 -82.11429986 428.34289957 -81 425 C-80.23558594 425.56847656 -79.47117187 426.13695312 -78.68359375 426.72265625 C-42.27768673 453.21435173 4.87242446 452.1410797 48 453 C47.69932617 452.52393311 47.39865234 452.04786621 47.08886719 451.55737305 C46.17398476 450.10880921 45.25910914 448.66024107 44.34423828 447.21166992 C43.26453447 445.50216645 42.18478036 443.79269474 41.10498047 442.08325195 C38.40999007 437.81663778 35.71557308 433.54966617 33.0234375 429.28125 C27.10785681 419.90427677 21.16792377 410.5431738 15.21142578 401.19213867 C10.97106673 394.53280243 6.75057176 387.86120069 2.5390625 381.18359375 C-1.87702883 374.18560775 -6.32061896 367.20527337 -10.76708984 360.2265625 C-15.2300819 353.21878404 -19.67136343 346.19753902 -24.09375 339.1640625 C-24.77824219 338.07738281 -24.77824219 338.07738281 -25.4765625 336.96875 C-26.11706543 335.95167969 -26.11706543 335.95167969 -26.77050781 334.9140625 C-27.92581866 333.11548485 -29.12319395 331.35387561 -30.3359375 329.59375 C-32 327 -32 327 -32 325 C-66.32835798 325.23208493 -100.65667658 325.46926442 -134.98495166 325.71329921 C-139.03554043 325.74208989 -143.0861295 325.77083828 -147.13671875 325.79956055 C-147.9431355 325.80527947 -148.74955224 325.81099839 -149.58040586 325.8168906 C-162.64653572 325.90945165 -175.71268684 325.99858548 -188.77884898 326.08645802 C-202.18084168 326.17666518 -215.58280503 326.27054311 -228.98474813 326.36784559 C-237.25784831 326.42779479 -245.53095815 326.48486322 -253.80410317 326.53827441 C-259.473374 326.57514906 -265.14261242 326.61558159 -270.81183812 326.65883821 C-274.08515525 326.68370797 -277.35846326 326.70645736 -280.63181686 326.7260437 C-284.17750675 326.74750559 -287.72310208 326.77489575 -291.26873779 326.80381775 C-292.8270948 326.81112133 -292.8270948 326.81112133 -294.41693377 326.81857246 C-295.36541477 326.8275303 -296.31389577 326.83648814 -297.29111862 326.84571743 C-298.10979565 326.85141324 -298.92847269 326.85710904 -299.77195811 326.86297745 C-302.00015874 327.00000976 -303.88811756 327.27524116 -306 328 C-307.59330151 330.06507815 -307.59330151 330.06507815 -308.8828125 332.71484375 C-309.40464111 333.70121826 -309.92646973 334.68759277 -310.46411133 335.70385742 C-311.01220459 336.77095947 -311.56029785 337.83806152 -312.125 338.9375 C-313.29737001 341.16188389 -314.47055262 343.38583968 -315.64453125 345.609375 C-316.21896973 346.70701172 -316.7934082 347.80464844 -317.38525391 348.93554688 C-319.46764399 352.88749129 -321.62663626 356.79213685 -323.8125 360.6875 C-324.61503498 362.12605021 -325.41709592 363.56486496 -326.21875 365.00390625 C-326.65058594 365.77879395 -327.08242188 366.55368164 -327.52734375 367.35205078 C-330.63338502 372.93695191 -333.72356914 378.5306231 -336.8125 384.125 C-337.15669983 384.74823151 -337.50089966 385.37146301 -337.85552979 386.01358032 C-342.5097801 394.44418507 -347.11886824 402.89760325 -351.6875 411.375 C-356.6308376 420.54755186 -361.70625925 429.63919819 -366.86401367 438.69287109 C-367.37681885 439.59344238 -367.88962402 440.49401367 -368.41796875 441.421875 C-368.86938232 442.21174805 -369.3207959 443.00162109 -369.78588867 443.81542969 C-370.91743652 445.85144219 -371.97635658 447.90801258 -373 450 C-372.13761719 449.98839844 -371.27523437 449.97679687 -370.38671875 449.96484375 C-364.19982255 449.91911168 -358.05346129 449.95587669 -351.87770081 450.35173035 C-339.64197936 451.13084654 -327.41135198 451.18614184 -315.15454102 451.18530273 C-311.54366638 451.18751152 -307.93308748 451.20580937 -304.32226562 451.22460938 C-301.98698019 451.22754067 -299.65169334 451.22952723 -297.31640625 451.23046875 C-296.25676163 451.23765427 -295.197117 451.24483978 -294.10536194 451.25224304 C-277.74264554 451.20283426 -265.73568204 447.744351 -253.90625 436.19140625 C-249.83049712 431.93370012 -246.82554491 427.02164103 -243.83984375 421.96875 C-242.33134514 419.53465458 -241.03685947 417.93309561 -239 416 C-240.38280243 423.37403507 -242.11129045 430.62044901 -244.00390625 437.87890625 C-244.28725327 438.97218735 -244.57060028 440.06546844 -244.86253357 441.19187927 C-245.45700342 443.48220617 -246.05289393 445.77216476 -246.65014648 448.06176758 C-247.56766042 451.58230071 -248.47840721 455.10453954 -249.38867188 458.62695312 C-249.96834525 460.85687609 -250.54840918 463.08669757 -251.12890625 465.31640625 C-251.40182999 466.37356339 -251.67475372 467.43072052 -251.95594788 468.51991272 C-252.20968674 469.48859787 -252.4634256 470.45728302 -252.72485352 471.45532227 C-253.05888939 472.73911522 -253.05888939 472.73911522 -253.39967346 474.04884338 C-254 476 -254 476 -255 477 C-257.33696963 477.10115499 -259.64431285 477.13612596 -261.98193359 477.12939453 C-262.7282734 477.13112419 -263.47461321 477.13285385 -264.24356937 477.13463593 C-266.7952132 477.13906865 -269.34679248 477.13599889 -271.8984375 477.1328125 C-273.76082885 477.13383347 -275.62322005 477.13517595 -277.48561096 477.1368103 C-282.68098398 477.13957636 -287.87632823 477.13491521 -293.07169724 477.12857056 C-296.3682845 477.12500726 -299.66486735 477.12337942 -302.9614563 477.12231445 C-375.64172628 477.09352453 -448.32180635 476.5026937 -521 476 C-522.93963475 468.52949174 -524.8784248 461.05876462 -526.81665039 453.58789062 C-527.47498825 451.05073174 -528.13351365 448.5136215 -528.79223633 445.9765625 C-529.74350485 442.31263047 -530.69408041 438.64851922 -531.64453125 434.984375 C-531.9352803 433.86512634 -532.22602936 432.74587769 -532.52558899 431.5927124 C-533.08228169 429.44553347 -533.63662838 427.29774464 -534.18838501 425.14929199 C-534.74299165 422.99726391 -535.30585339 420.84735081 -535.87582397 418.69934082 C-536.28860092 417.11615051 -536.28860092 417.11615051 -536.7097168 415.50097656 C-536.95787643 414.56239807 -537.20603607 413.62381958 -537.4617157 412.65679932 C-537.99464567 410.02642724 -538.10005987 407.67535675 -538 405 C-536.83726562 405.556875 -535.67453125 406.11375 -534.4765625 406.6875 C-530.17945568 408.74054702 -525.87061254 410.76797703 -521.55908203 412.79052734 C-519.36232076 413.82876006 -517.17818387 414.88849056 -514.99609375 415.95703125 C-484.29331755 430.65122067 -449.6163506 439.55451283 -416 444 C-415.57404541 443.26813477 -415.14809082 442.53626953 -414.70922852 441.78222656 C-406.6652128 427.9753179 -398.57018235 414.20515368 -390.25 400.5625 C-383.68442247 389.79442566 -377.22403267 378.96966137 -370.82714844 368.10058594 C-367.14522415 361.85253164 -363.44956809 355.61262031 -359.75 349.375 C-359.34444885 348.69119263 -358.93889771 348.00738525 -358.52105713 347.30285645 C-352.56228967 337.26122434 -346.53726403 327.26242446 -340.45910645 317.29266357 C-334.73619314 307.90268299 -329.10093827 298.46318592 -323.5 289 C-317.21953143 278.38869902 -310.877075 267.81900773 -304.45800781 257.29101562 C-298.32464586 247.22748254 -292.29583885 237.10443125 -286.29400635 226.96200562 C-280.71694455 217.53987913 -275.07843468 208.15862 -269.375 198.8125 C-263.65073541 189.43150928 -258.03554306 179.99353566 -252.5 170.5 C-246.6249384 160.42418518 -240.64791806 150.41846916 -234.57226562 140.46240234 C-228.80962118 131.01688486 -223.13480929 121.52228692 -217.5 112 C-211.49797998 101.858294 -205.44636502 91.75003102 -199.3125 81.6875 C-191.08857319 68.19510494 -183.02334262 54.61239885 -175 41 C-276.72780967 32.1640258 -276.72780967 32.1640258 -370 61 C-370.66 60.67 -371.32 60.34 -372 60 C-371.62939453 59.40912598 -371.25878906 58.81825195 -370.87695312 58.20947266 C-363.2887998 46.10511424 -355.73453393 33.98116409 -348.25 21.8125 C-347.57130859 20.70922363 -346.89261719 19.60594727 -346.19335938 18.46923828 C-342.77705193 13.02438184 -342.77705193 13.02438184 -339.71380711 7.38282299 C-338 5 -338 5 -335.73792171 4.34508991 C-334.83698064 4.33065436 -333.93603956 4.31621881 -333.00779724 4.30134583 C-331.43059182 4.25768229 -331.43059182 4.25768229 -329.82152367 4.21313667 C-328.06026618 4.20201756 -328.06026618 4.20201756 -326.26342773 4.19067383 C-324.99647379 4.16244474 -323.72951984 4.13421566 -322.42417336 4.10513115 C-319.57637979 4.04171916 -316.7288676 3.99414773 -313.88060188 3.95773888 C-309.09702014 3.89605478 -304.31448866 3.79938734 -299.53160095 3.69819641 C-294.05211365 3.58399395 -288.57261392 3.47291284 -283.0928545 3.37250423 C-266.55491782 3.0682345 -250.02013664 2.66715488 -233.48486328 2.24365234 C-228.66230902 2.12040076 -223.83975094 1.99729895 -219.01719083 1.87427644 C-217.6092088 1.83835631 -216.20122728 1.80241637 -214.79324625 1.76645692 C-195.93490698 1.28513141 -177.07581072 0.83561237 -158.21667943 0.38658869 C-154.50146544 0.29811325 -150.78625442 0.20951344 -147.07104492 0.12084961 C-146.33296562 0.10324373 -145.59488633 0.08563785 -144.83444099 0.06749846 C-132.68079929 -0.22270235 -120.52747401 -0.52463088 -108.37421925 -0.83056185 C-95.74649593 -1.1482022 -83.11853287 -1.45432811 -70.49026197 -1.74940842 C-62.76779211 -1.93020283 -55.04564601 -2.11980734 -47.32368093 -2.32102903 C-41.46819644 -2.47264338 -35.61241127 -2.60817931 -29.75638962 -2.73750114 C-27.35635852 -2.79304272 -24.95644341 -2.85387566 -22.55668831 -2.92028046 C-19.29505897 -3.00975985 -16.03355569 -3.08054098 -12.77137756 -3.1464386 C-11.81505544 -3.17715857 -10.85873332 -3.20787855 -9.87343174 -3.23952943 C-9.00392807 -3.25322326 -8.13442439 -3.26691709 -7.23857212 -3.28102589 C-6.48696861 -3.29930748 -5.7353651 -3.31758907 -4.96098572 -3.33642465 C-2.42973218 -2.90216545 -1.60024108 -1.96242484 0 0 Z M-179 95 C-186.67503731 108.86879688 -194.34402291 122.73976474 -201.875 136.6875 C-206.26927908 144.82375126 -210.71619533 152.92718633 -215.21875 161.00390625 C-218.76585084 167.36883459 -222.29044528 173.7461905 -225.8125 180.125 C-226.15669983 180.74823151 -226.50089966 181.37146301 -226.85552979 182.01358032 C-231.50978024 190.44418532 -236.11883251 198.89762251 -240.6875 207.375 C-244.82606125 215.0535624 -249.05598034 222.67155317 -253.375 230.25 C-258.22405545 238.75992688 -262.90034942 247.35342132 -267.5 256 C-273.14241541 266.60576156 -278.96020722 277.0983436 -284.90234375 287.5390625 C-288.08117578 293.1279302 -291.2077321 298.74469683 -294.3125 304.375 C-294.78719727 305.23222656 -295.26189453 306.08945313 -295.75097656 306.97265625 C-296.17991211 307.75253906 -296.60884766 308.53242187 -297.05078125 309.3359375 C-297.42887939 310.02220215 -297.80697754 310.7084668 -298.1965332 311.41552734 C-299.07537728 312.85255653 -299.07537728 312.85255653 -299 314 C-240.07137386 314.1213548 -181.14700195 314.03229316 -122.21986121 313.61044246 C-116.95053014 313.57281874 -111.68118716 313.53744715 -106.41183472 313.50296021 C-99.93923289 313.46042321 -93.46666956 313.41414696 -86.99412811 313.36322176 C-83.67160896 313.33708113 -80.34910329 313.31259185 -77.02655029 313.29090881 C-73.39191869 313.26672077 -69.75737788 313.23676371 -66.12280273 313.20532227 C-64.55825678 313.19668954 -64.55825678 313.19668954 -62.96210384 313.18788242 C-55.60865759 313.11550624 -48.32498371 312.64092195 -41 312 C-42.17767691 308.99627153 -43.32760252 306.25933044 -45.109375 303.56640625 C-45.52695068 302.92912598 -45.94452637 302.2918457 -46.37475586 301.63525391 C-46.82858643 300.95124512 -47.28241699 300.26723633 -47.75 299.5625 C-48.74693892 298.040918 -49.74298882 296.51875326 -50.73828125 294.99609375 C-51.53226318 293.78348877 -51.53226318 293.78348877 -52.34228516 292.54638672 C-55.24084867 288.09395411 -58.08859774 283.60931043 -60.9375 279.125 C-61.82743652 277.72519897 -61.82743652 277.72519897 -62.73535156 276.29711914 C-66.99119584 269.59851301 -71.23084473 262.88976405 -75.46508789 256.17749023 C-81.02440441 247.36859137 -86.62158239 238.58384021 -92.21777344 229.79833984 C-95.72864692 224.28578753 -99.23661503 218.77138595 -102.74511719 213.25732422 C-105.68587905 208.63577476 -108.62736332 204.01468822 -111.5703125 199.39453125 C-117.55356973 189.99976771 -123.52327876 180.5968409 -129.46582031 171.17626953 C-135.02498576 162.3678361 -140.62183707 153.58344039 -146.21777344 144.79833984 C-148.56525069 141.11247898 -150.91137849 137.42576065 -153.25708008 133.73876953 C-154.41261956 131.92299114 -155.5687008 130.1075574 -156.7253418 128.29248047 C-159.7912489 123.47987513 -162.84616455 118.66070105 -165.88671875 113.83203125 C-166.52287109 112.82462891 -167.15902344 111.81722656 -167.81445312 110.77929688 C-169.03639679 108.84380947 -170.2552933 106.90639394 -171.47070312 104.96679688 C-172.02048828 104.09732422 -172.57027344 103.22785156 -173.13671875 102.33203125 C-173.61842529 101.56608643 -174.10013184 100.8001416 -174.59643555 100.01098633 C-175.92214645 98.1115463 -177.30803271 96.57439573 -179 95 Z " fill="#000000" transform="translate(538,962)"/>
<path d="M0 0 C0.66 0 1.32 0 2 0 C27.18288976 46.24494301 25.32361717 97.0897318 11.03466797 146.54931641 C4.8342607 167.22806969 -3.14642037 187.18208124 -11.24072266 207.16964722 C-36.29705609 262.06072211 -36.29705609 262.06072211 -33.9375 320 C-30.73952896 327.38579026 -25.56485264 332.63005112 -19.78515625 338.09375 C-16.90199407 341.17248773 -16.84227605 344.01891228 -16.8125 348.0625 C-16.79832031 348.94035156 -16.78414062 349.81820313 -16.76953125 350.72265625 C-17 353 -17 353 -19 355 C-28.15302573 356.59183056 -36.55695839 350.17267745 -43.75 345.1875 C-57.84847346 334.47671729 -63.67183253 319.97019779 -70 304 C-72.75382374 303.7967206 -72.75382374 303.7967206 -76 305 C-77.93870346 307.04125806 -79.52442402 309.22083727 -81.16992188 311.50439453 C-84.05353403 315.43666286 -87.39461423 318.90768645 -90.75 322.4375 C-91.4517334 323.17685791 -92.1534668 323.91621582 -92.87646484 324.67797852 C-106.46008828 338.87932228 -120.64256218 350.66453879 -139 358 C-139.64146973 358.2568457 -140.28293945 358.51369141 -140.94384766 358.77832031 C-148.57466429 361.7542433 -156.73810635 364.87703129 -165 363 C-168.34922622 360.04949119 -169.76555097 357.21381383 -170.23828125 352.75 C-170.9663802 325.77201784 -157.12164163 302.53138449 -139.21875 283.3046875 C-133.04662824 276.89350469 -126.73235843 270.81846362 -120 265 C-116.99233415 262.3008127 -115.83170369 260.90012506 -115 257 C-121.49092036 254.72817787 -127.77795469 253.53940788 -134.5625 252.625 C-156.38660151 249.55677735 -174.85687897 241.35869448 -193 229 C-194.08023438 228.31035156 -195.16046875 227.62070312 -196.2734375 226.91015625 C-199.61686337 224.56784214 -200.71259011 222.86222968 -202 219 C-201.8125 215.1875 -201.8125 215.1875 -201 212 C-197.91182207 210.45591103 -195.42854001 210.77880387 -192 211 C-190.85789062 211.47566406 -189.71578125 211.95132813 -188.5390625 212.44140625 C-183.00772743 214.59396963 -177.37690549 214.81755628 -171.5 215.1875 C-169.75916138 215.30593262 -169.75916138 215.30593262 -167.9831543 215.42675781 C-126.4114136 218.10413206 -84.31867339 212.16162933 -52 184 C-28.39915104 162.9930524 -16.49742036 132.99547541 -9 103 C-8.80954102 102.24444824 -8.61908203 101.48889648 -8.42285156 100.71044922 C-0.44489946 67.99796027 0.1531136 33.49359895 0 0 Z " fill="#000000" transform="translate(983,387)"/>
<path d="M0 0 C0.66 0 1.32 0 2 0 C32.79918029 76.22366965 44.46924028 157.19479255 12 235 C3.30463144 254.34768428 3.30463144 254.34768428 0 256 C-33.38172962 192.97115767 -42.49858819 123.32045996 -21.71899414 54.56469727 C-20.82931315 51.7041769 -19.91970821 48.85099448 -19 46 C-18.72961914 45.14921875 -18.45923828 44.2984375 -18.18066406 43.421875 C-6.23968587 6.23968587 -6.23968587 6.23968587 0 0 Z " fill="#000000" transform="translate(1223,1876)"/>
<path d="M0 0 C0.99 0.495 0.99 0.495 2 1 C-8.29745656 38.95925162 -27.59269699 70.72859603 -62.34106445 90.75146484 C-67.76227182 93.81845278 -73.14332279 96.84377498 -79 99 C-79.99 98.67 -80.98 98.34 -82 98 C-76.25307556 75.11823634 -67.52645227 55.21116404 -51 38 C-49.86969025 36.65026217 -48.744448 35.29625993 -47.625 33.9375 C-43.27960477 28.97700316 -38.20735699 25.0176612 -33 21 C-32.44812012 20.5678418 -31.89624023 20.13568359 -31.32763672 19.69042969 C-23.94436296 13.93566672 -16.35440143 8.83525663 -8.1875 4.25 C-7.40431396 3.8072876 -6.62112793 3.3645752 -5.81420898 2.90844727 C-3.91198565 1.87039304 -1.95941824 0.92557568 0 0 Z " fill="#000000" transform="translate(1147,1954)"/>
<path d="M0 0 C5.19989573 1.49150614 9.5138541 3.81413834 14.125 6.5625 C14.87273682 7.00650146 15.62047363 7.45050293 16.39086914 7.90795898 C26.82696331 14.20184016 36.16253522 21.60834205 45 30 C45.51208008 30.47953125 46.02416016 30.9590625 46.55175781 31.453125 C54.57386163 39.00334036 61.13005775 46.62423762 67 56 C67.93779297 57.46373047 67.93779297 57.46373047 68.89453125 58.95703125 C75.87832764 70.32281752 83.43522382 85.4113451 83 99 C76.67107616 97.11081065 70.99799234 94.6819673 65.25 91.4375 C64.46850586 90.99696289 63.68701172 90.55642578 62.88183594 90.10253906 C44.11743316 79.29319675 29.2653447 64.42042298 18 46 C17.63181152 45.4013916 17.26362305 44.8027832 16.88427734 44.18603516 C8.77233026 30.71594339 3.10237891 15.38654589 0 0 Z " fill="#000000" transform="translate(1296,1954)"/>
</svg>
